%TF.GenerationSoftware,KiCad,Pcbnew,9.0.2*%
%TF.CreationDate,2026-01-08T00:12:05-06:00*%
%TF.ProjectId,Main,4d61696e-2e6b-4696-9361-645f70636258,rev?*%
%TF.SameCoordinates,Original*%
%TF.FileFunction,Legend,Bot*%
%TF.FilePolarity,Positive*%
%FSLAX46Y46*%
G04 Gerber Fmt 4.6, Leading zero omitted, Abs format (unit mm)*
G04 Created by KiCad (PCBNEW 9.0.2) date 2026-01-08 00:12:05*
%MOMM*%
%LPD*%
G01*
G04 APERTURE LIST*
%ADD10C,0.100000*%
%ADD11C,0.150000*%
%ADD12C,0.120000*%
%ADD13C,0.254000*%
G04 APERTURE END LIST*
D10*
X132624800Y-101556265D02*
X132672419Y-101699122D01*
X132672419Y-101699122D02*
X132672419Y-101937217D01*
X132672419Y-101937217D02*
X132624800Y-102032455D01*
X132624800Y-102032455D02*
X132577180Y-102080074D01*
X132577180Y-102080074D02*
X132481942Y-102127693D01*
X132481942Y-102127693D02*
X132386704Y-102127693D01*
X132386704Y-102127693D02*
X132291466Y-102080074D01*
X132291466Y-102080074D02*
X132243847Y-102032455D01*
X132243847Y-102032455D02*
X132196228Y-101937217D01*
X132196228Y-101937217D02*
X132148609Y-101746741D01*
X132148609Y-101746741D02*
X132100990Y-101651503D01*
X132100990Y-101651503D02*
X132053371Y-101603884D01*
X132053371Y-101603884D02*
X131958133Y-101556265D01*
X131958133Y-101556265D02*
X131862895Y-101556265D01*
X131862895Y-101556265D02*
X131767657Y-101603884D01*
X131767657Y-101603884D02*
X131720038Y-101651503D01*
X131720038Y-101651503D02*
X131672419Y-101746741D01*
X131672419Y-101746741D02*
X131672419Y-101984836D01*
X131672419Y-101984836D02*
X131720038Y-102127693D01*
X132672419Y-102556265D02*
X131672419Y-102556265D01*
X132672419Y-103032455D02*
X131672419Y-103032455D01*
X131672419Y-103032455D02*
X132386704Y-103365788D01*
X132386704Y-103365788D02*
X131672419Y-103699121D01*
X131672419Y-103699121D02*
X132672419Y-103699121D01*
X131672419Y-104175312D02*
X132481942Y-104175312D01*
X132481942Y-104175312D02*
X132577180Y-104222931D01*
X132577180Y-104222931D02*
X132624800Y-104270550D01*
X132624800Y-104270550D02*
X132672419Y-104365788D01*
X132672419Y-104365788D02*
X132672419Y-104556264D01*
X132672419Y-104556264D02*
X132624800Y-104651502D01*
X132624800Y-104651502D02*
X132577180Y-104699121D01*
X132577180Y-104699121D02*
X132481942Y-104746740D01*
X132481942Y-104746740D02*
X131672419Y-104746740D01*
X131672419Y-105841979D02*
X131672419Y-106413407D01*
X132672419Y-106127693D02*
X131672419Y-106127693D01*
X132672419Y-106746741D02*
X131672419Y-106746741D01*
X131672419Y-106746741D02*
X132386704Y-107080074D01*
X132386704Y-107080074D02*
X131672419Y-107413407D01*
X131672419Y-107413407D02*
X132672419Y-107413407D01*
X132672419Y-108461026D02*
X132196228Y-108127693D01*
X132672419Y-107889598D02*
X131672419Y-107889598D01*
X131672419Y-107889598D02*
X131672419Y-108270550D01*
X131672419Y-108270550D02*
X131720038Y-108365788D01*
X131720038Y-108365788D02*
X131767657Y-108413407D01*
X131767657Y-108413407D02*
X131862895Y-108461026D01*
X131862895Y-108461026D02*
X132005752Y-108461026D01*
X132005752Y-108461026D02*
X132100990Y-108413407D01*
X132100990Y-108413407D02*
X132148609Y-108365788D01*
X132148609Y-108365788D02*
X132196228Y-108270550D01*
X132196228Y-108270550D02*
X132196228Y-107889598D01*
X123948496Y-119412755D02*
X123758020Y-119412755D01*
X123758020Y-119412755D02*
X123662782Y-119365136D01*
X123662782Y-119365136D02*
X123615163Y-119317516D01*
X123615163Y-119317516D02*
X123519925Y-119174659D01*
X123519925Y-119174659D02*
X123472306Y-118984183D01*
X123472306Y-118984183D02*
X123472306Y-118603231D01*
X123472306Y-118603231D02*
X123519925Y-118507993D01*
X123519925Y-118507993D02*
X123567544Y-118460374D01*
X123567544Y-118460374D02*
X123662782Y-118412755D01*
X123662782Y-118412755D02*
X123853258Y-118412755D01*
X123853258Y-118412755D02*
X123948496Y-118460374D01*
X123948496Y-118460374D02*
X123996115Y-118507993D01*
X123996115Y-118507993D02*
X124043734Y-118603231D01*
X124043734Y-118603231D02*
X124043734Y-118841326D01*
X124043734Y-118841326D02*
X123996115Y-118936564D01*
X123996115Y-118936564D02*
X123948496Y-118984183D01*
X123948496Y-118984183D02*
X123853258Y-119031802D01*
X123853258Y-119031802D02*
X123662782Y-119031802D01*
X123662782Y-119031802D02*
X123567544Y-118984183D01*
X123567544Y-118984183D02*
X123519925Y-118936564D01*
X123519925Y-118936564D02*
X123472306Y-118841326D01*
X123043734Y-119031802D02*
X122281830Y-119031802D01*
X121234211Y-119412755D02*
X121567544Y-118936564D01*
X121805639Y-119412755D02*
X121805639Y-118412755D01*
X121805639Y-118412755D02*
X121424687Y-118412755D01*
X121424687Y-118412755D02*
X121329449Y-118460374D01*
X121329449Y-118460374D02*
X121281830Y-118507993D01*
X121281830Y-118507993D02*
X121234211Y-118603231D01*
X121234211Y-118603231D02*
X121234211Y-118746088D01*
X121234211Y-118746088D02*
X121281830Y-118841326D01*
X121281830Y-118841326D02*
X121329449Y-118888945D01*
X121329449Y-118888945D02*
X121424687Y-118936564D01*
X121424687Y-118936564D02*
X121805639Y-118936564D01*
X120377068Y-119412755D02*
X120377068Y-118888945D01*
X120377068Y-118888945D02*
X120424687Y-118793707D01*
X120424687Y-118793707D02*
X120519925Y-118746088D01*
X120519925Y-118746088D02*
X120710401Y-118746088D01*
X120710401Y-118746088D02*
X120805639Y-118793707D01*
X120377068Y-119365136D02*
X120472306Y-119412755D01*
X120472306Y-119412755D02*
X120710401Y-119412755D01*
X120710401Y-119412755D02*
X120805639Y-119365136D01*
X120805639Y-119365136D02*
X120853258Y-119269897D01*
X120853258Y-119269897D02*
X120853258Y-119174659D01*
X120853258Y-119174659D02*
X120805639Y-119079421D01*
X120805639Y-119079421D02*
X120710401Y-119031802D01*
X120710401Y-119031802D02*
X120472306Y-119031802D01*
X120472306Y-119031802D02*
X120377068Y-118984183D01*
X119472306Y-119412755D02*
X119472306Y-118412755D01*
X119472306Y-119365136D02*
X119567544Y-119412755D01*
X119567544Y-119412755D02*
X119758020Y-119412755D01*
X119758020Y-119412755D02*
X119853258Y-119365136D01*
X119853258Y-119365136D02*
X119900877Y-119317516D01*
X119900877Y-119317516D02*
X119948496Y-119222278D01*
X119948496Y-119222278D02*
X119948496Y-118936564D01*
X119948496Y-118936564D02*
X119900877Y-118841326D01*
X119900877Y-118841326D02*
X119853258Y-118793707D01*
X119853258Y-118793707D02*
X119758020Y-118746088D01*
X119758020Y-118746088D02*
X119567544Y-118746088D01*
X119567544Y-118746088D02*
X119472306Y-118793707D01*
X118996115Y-119412755D02*
X118996115Y-118746088D01*
X118996115Y-118412755D02*
X119043734Y-118460374D01*
X119043734Y-118460374D02*
X118996115Y-118507993D01*
X118996115Y-118507993D02*
X118948496Y-118460374D01*
X118948496Y-118460374D02*
X118996115Y-118412755D01*
X118996115Y-118412755D02*
X118996115Y-118507993D01*
X118377068Y-119412755D02*
X118472306Y-119365136D01*
X118472306Y-119365136D02*
X118519925Y-119317516D01*
X118519925Y-119317516D02*
X118567544Y-119222278D01*
X118567544Y-119222278D02*
X118567544Y-118936564D01*
X118567544Y-118936564D02*
X118519925Y-118841326D01*
X118519925Y-118841326D02*
X118472306Y-118793707D01*
X118472306Y-118793707D02*
X118377068Y-118746088D01*
X118377068Y-118746088D02*
X118234211Y-118746088D01*
X118234211Y-118746088D02*
X118138973Y-118793707D01*
X118138973Y-118793707D02*
X118091354Y-118841326D01*
X118091354Y-118841326D02*
X118043735Y-118936564D01*
X118043735Y-118936564D02*
X118043735Y-119222278D01*
X118043735Y-119222278D02*
X118091354Y-119317516D01*
X118091354Y-119317516D02*
X118138973Y-119365136D01*
X118138973Y-119365136D02*
X118234211Y-119412755D01*
X118234211Y-119412755D02*
X118377068Y-119412755D01*
X116281830Y-119412755D02*
X116615163Y-118936564D01*
X116853258Y-119412755D02*
X116853258Y-118412755D01*
X116853258Y-118412755D02*
X116472306Y-118412755D01*
X116472306Y-118412755D02*
X116377068Y-118460374D01*
X116377068Y-118460374D02*
X116329449Y-118507993D01*
X116329449Y-118507993D02*
X116281830Y-118603231D01*
X116281830Y-118603231D02*
X116281830Y-118746088D01*
X116281830Y-118746088D02*
X116329449Y-118841326D01*
X116329449Y-118841326D02*
X116377068Y-118888945D01*
X116377068Y-118888945D02*
X116472306Y-118936564D01*
X116472306Y-118936564D02*
X116853258Y-118936564D01*
X115519925Y-118888945D02*
X115853258Y-118888945D01*
X115853258Y-119412755D02*
X115853258Y-118412755D01*
X115853258Y-118412755D02*
X115377068Y-118412755D01*
X123472306Y-121022699D02*
X124043734Y-121022699D01*
X123758020Y-121022699D02*
X123758020Y-120022699D01*
X123758020Y-120022699D02*
X123853258Y-120165556D01*
X123853258Y-120165556D02*
X123948496Y-120260794D01*
X123948496Y-120260794D02*
X124043734Y-120308413D01*
X122853258Y-120022699D02*
X122758020Y-120022699D01*
X122758020Y-120022699D02*
X122662782Y-120070318D01*
X122662782Y-120070318D02*
X122615163Y-120117937D01*
X122615163Y-120117937D02*
X122567544Y-120213175D01*
X122567544Y-120213175D02*
X122519925Y-120403651D01*
X122519925Y-120403651D02*
X122519925Y-120641746D01*
X122519925Y-120641746D02*
X122567544Y-120832222D01*
X122567544Y-120832222D02*
X122615163Y-120927460D01*
X122615163Y-120927460D02*
X122662782Y-120975080D01*
X122662782Y-120975080D02*
X122758020Y-121022699D01*
X122758020Y-121022699D02*
X122853258Y-121022699D01*
X122853258Y-121022699D02*
X122948496Y-120975080D01*
X122948496Y-120975080D02*
X122996115Y-120927460D01*
X122996115Y-120927460D02*
X123043734Y-120832222D01*
X123043734Y-120832222D02*
X123091353Y-120641746D01*
X123091353Y-120641746D02*
X123091353Y-120403651D01*
X123091353Y-120403651D02*
X123043734Y-120213175D01*
X123043734Y-120213175D02*
X122996115Y-120117937D01*
X122996115Y-120117937D02*
X122948496Y-120070318D01*
X122948496Y-120070318D02*
X122853258Y-120022699D01*
X122091353Y-120641746D02*
X121329449Y-120641746D01*
X120281830Y-121022699D02*
X120615163Y-120546508D01*
X120853258Y-121022699D02*
X120853258Y-120022699D01*
X120853258Y-120022699D02*
X120472306Y-120022699D01*
X120472306Y-120022699D02*
X120377068Y-120070318D01*
X120377068Y-120070318D02*
X120329449Y-120117937D01*
X120329449Y-120117937D02*
X120281830Y-120213175D01*
X120281830Y-120213175D02*
X120281830Y-120356032D01*
X120281830Y-120356032D02*
X120329449Y-120451270D01*
X120329449Y-120451270D02*
X120377068Y-120498889D01*
X120377068Y-120498889D02*
X120472306Y-120546508D01*
X120472306Y-120546508D02*
X120853258Y-120546508D01*
X119424687Y-121022699D02*
X119424687Y-120498889D01*
X119424687Y-120498889D02*
X119472306Y-120403651D01*
X119472306Y-120403651D02*
X119567544Y-120356032D01*
X119567544Y-120356032D02*
X119758020Y-120356032D01*
X119758020Y-120356032D02*
X119853258Y-120403651D01*
X119424687Y-120975080D02*
X119519925Y-121022699D01*
X119519925Y-121022699D02*
X119758020Y-121022699D01*
X119758020Y-121022699D02*
X119853258Y-120975080D01*
X119853258Y-120975080D02*
X119900877Y-120879841D01*
X119900877Y-120879841D02*
X119900877Y-120784603D01*
X119900877Y-120784603D02*
X119853258Y-120689365D01*
X119853258Y-120689365D02*
X119758020Y-120641746D01*
X119758020Y-120641746D02*
X119519925Y-120641746D01*
X119519925Y-120641746D02*
X119424687Y-120594127D01*
X118519925Y-121022699D02*
X118519925Y-120022699D01*
X118519925Y-120975080D02*
X118615163Y-121022699D01*
X118615163Y-121022699D02*
X118805639Y-121022699D01*
X118805639Y-121022699D02*
X118900877Y-120975080D01*
X118900877Y-120975080D02*
X118948496Y-120927460D01*
X118948496Y-120927460D02*
X118996115Y-120832222D01*
X118996115Y-120832222D02*
X118996115Y-120546508D01*
X118996115Y-120546508D02*
X118948496Y-120451270D01*
X118948496Y-120451270D02*
X118900877Y-120403651D01*
X118900877Y-120403651D02*
X118805639Y-120356032D01*
X118805639Y-120356032D02*
X118615163Y-120356032D01*
X118615163Y-120356032D02*
X118519925Y-120403651D01*
X118043734Y-121022699D02*
X118043734Y-120356032D01*
X118043734Y-120022699D02*
X118091353Y-120070318D01*
X118091353Y-120070318D02*
X118043734Y-120117937D01*
X118043734Y-120117937D02*
X117996115Y-120070318D01*
X117996115Y-120070318D02*
X118043734Y-120022699D01*
X118043734Y-120022699D02*
X118043734Y-120117937D01*
X117424687Y-121022699D02*
X117519925Y-120975080D01*
X117519925Y-120975080D02*
X117567544Y-120927460D01*
X117567544Y-120927460D02*
X117615163Y-120832222D01*
X117615163Y-120832222D02*
X117615163Y-120546508D01*
X117615163Y-120546508D02*
X117567544Y-120451270D01*
X117567544Y-120451270D02*
X117519925Y-120403651D01*
X117519925Y-120403651D02*
X117424687Y-120356032D01*
X117424687Y-120356032D02*
X117281830Y-120356032D01*
X117281830Y-120356032D02*
X117186592Y-120403651D01*
X117186592Y-120403651D02*
X117138973Y-120451270D01*
X117138973Y-120451270D02*
X117091354Y-120546508D01*
X117091354Y-120546508D02*
X117091354Y-120832222D01*
X117091354Y-120832222D02*
X117138973Y-120927460D01*
X117138973Y-120927460D02*
X117186592Y-120975080D01*
X117186592Y-120975080D02*
X117281830Y-121022699D01*
X117281830Y-121022699D02*
X117424687Y-121022699D01*
X115329449Y-121022699D02*
X115662782Y-120546508D01*
X115900877Y-121022699D02*
X115900877Y-120022699D01*
X115900877Y-120022699D02*
X115519925Y-120022699D01*
X115519925Y-120022699D02*
X115424687Y-120070318D01*
X115424687Y-120070318D02*
X115377068Y-120117937D01*
X115377068Y-120117937D02*
X115329449Y-120213175D01*
X115329449Y-120213175D02*
X115329449Y-120356032D01*
X115329449Y-120356032D02*
X115377068Y-120451270D01*
X115377068Y-120451270D02*
X115424687Y-120498889D01*
X115424687Y-120498889D02*
X115519925Y-120546508D01*
X115519925Y-120546508D02*
X115900877Y-120546508D01*
X114996115Y-120022699D02*
X114329449Y-121022699D01*
X114329449Y-120022699D02*
X114996115Y-121022699D01*
X123472306Y-122632643D02*
X124043734Y-122632643D01*
X123758020Y-122632643D02*
X123758020Y-121632643D01*
X123758020Y-121632643D02*
X123853258Y-121775500D01*
X123853258Y-121775500D02*
X123948496Y-121870738D01*
X123948496Y-121870738D02*
X124043734Y-121918357D01*
X122519925Y-122632643D02*
X123091353Y-122632643D01*
X122805639Y-122632643D02*
X122805639Y-121632643D01*
X122805639Y-121632643D02*
X122900877Y-121775500D01*
X122900877Y-121775500D02*
X122996115Y-121870738D01*
X122996115Y-121870738D02*
X123091353Y-121918357D01*
X122091353Y-122251690D02*
X121329449Y-122251690D01*
X120281830Y-122632643D02*
X120615163Y-122156452D01*
X120853258Y-122632643D02*
X120853258Y-121632643D01*
X120853258Y-121632643D02*
X120472306Y-121632643D01*
X120472306Y-121632643D02*
X120377068Y-121680262D01*
X120377068Y-121680262D02*
X120329449Y-121727881D01*
X120329449Y-121727881D02*
X120281830Y-121823119D01*
X120281830Y-121823119D02*
X120281830Y-121965976D01*
X120281830Y-121965976D02*
X120329449Y-122061214D01*
X120329449Y-122061214D02*
X120377068Y-122108833D01*
X120377068Y-122108833D02*
X120472306Y-122156452D01*
X120472306Y-122156452D02*
X120853258Y-122156452D01*
X119424687Y-122632643D02*
X119424687Y-122108833D01*
X119424687Y-122108833D02*
X119472306Y-122013595D01*
X119472306Y-122013595D02*
X119567544Y-121965976D01*
X119567544Y-121965976D02*
X119758020Y-121965976D01*
X119758020Y-121965976D02*
X119853258Y-122013595D01*
X119424687Y-122585024D02*
X119519925Y-122632643D01*
X119519925Y-122632643D02*
X119758020Y-122632643D01*
X119758020Y-122632643D02*
X119853258Y-122585024D01*
X119853258Y-122585024D02*
X119900877Y-122489785D01*
X119900877Y-122489785D02*
X119900877Y-122394547D01*
X119900877Y-122394547D02*
X119853258Y-122299309D01*
X119853258Y-122299309D02*
X119758020Y-122251690D01*
X119758020Y-122251690D02*
X119519925Y-122251690D01*
X119519925Y-122251690D02*
X119424687Y-122204071D01*
X118519925Y-122632643D02*
X118519925Y-121632643D01*
X118519925Y-122585024D02*
X118615163Y-122632643D01*
X118615163Y-122632643D02*
X118805639Y-122632643D01*
X118805639Y-122632643D02*
X118900877Y-122585024D01*
X118900877Y-122585024D02*
X118948496Y-122537404D01*
X118948496Y-122537404D02*
X118996115Y-122442166D01*
X118996115Y-122442166D02*
X118996115Y-122156452D01*
X118996115Y-122156452D02*
X118948496Y-122061214D01*
X118948496Y-122061214D02*
X118900877Y-122013595D01*
X118900877Y-122013595D02*
X118805639Y-121965976D01*
X118805639Y-121965976D02*
X118615163Y-121965976D01*
X118615163Y-121965976D02*
X118519925Y-122013595D01*
X118043734Y-122632643D02*
X118043734Y-121965976D01*
X118043734Y-121632643D02*
X118091353Y-121680262D01*
X118091353Y-121680262D02*
X118043734Y-121727881D01*
X118043734Y-121727881D02*
X117996115Y-121680262D01*
X117996115Y-121680262D02*
X118043734Y-121632643D01*
X118043734Y-121632643D02*
X118043734Y-121727881D01*
X117424687Y-122632643D02*
X117519925Y-122585024D01*
X117519925Y-122585024D02*
X117567544Y-122537404D01*
X117567544Y-122537404D02*
X117615163Y-122442166D01*
X117615163Y-122442166D02*
X117615163Y-122156452D01*
X117615163Y-122156452D02*
X117567544Y-122061214D01*
X117567544Y-122061214D02*
X117519925Y-122013595D01*
X117519925Y-122013595D02*
X117424687Y-121965976D01*
X117424687Y-121965976D02*
X117281830Y-121965976D01*
X117281830Y-121965976D02*
X117186592Y-122013595D01*
X117186592Y-122013595D02*
X117138973Y-122061214D01*
X117138973Y-122061214D02*
X117091354Y-122156452D01*
X117091354Y-122156452D02*
X117091354Y-122442166D01*
X117091354Y-122442166D02*
X117138973Y-122537404D01*
X117138973Y-122537404D02*
X117186592Y-122585024D01*
X117186592Y-122585024D02*
X117281830Y-122632643D01*
X117281830Y-122632643D02*
X117424687Y-122632643D01*
X116043734Y-121632643D02*
X115472306Y-121632643D01*
X115758020Y-122632643D02*
X115758020Y-121632643D01*
X115234210Y-121632643D02*
X114567544Y-122632643D01*
X114567544Y-121632643D02*
X115234210Y-122632643D01*
X123472306Y-124242587D02*
X124043734Y-124242587D01*
X123758020Y-124242587D02*
X123758020Y-123242587D01*
X123758020Y-123242587D02*
X123853258Y-123385444D01*
X123853258Y-123385444D02*
X123948496Y-123480682D01*
X123948496Y-123480682D02*
X124043734Y-123528301D01*
X123091353Y-123337825D02*
X123043734Y-123290206D01*
X123043734Y-123290206D02*
X122948496Y-123242587D01*
X122948496Y-123242587D02*
X122710401Y-123242587D01*
X122710401Y-123242587D02*
X122615163Y-123290206D01*
X122615163Y-123290206D02*
X122567544Y-123337825D01*
X122567544Y-123337825D02*
X122519925Y-123433063D01*
X122519925Y-123433063D02*
X122519925Y-123528301D01*
X122519925Y-123528301D02*
X122567544Y-123671158D01*
X122567544Y-123671158D02*
X123138972Y-124242587D01*
X123138972Y-124242587D02*
X122519925Y-124242587D01*
X122091353Y-123861634D02*
X121329449Y-123861634D01*
X120900877Y-124194968D02*
X120758020Y-124242587D01*
X120758020Y-124242587D02*
X120519925Y-124242587D01*
X120519925Y-124242587D02*
X120424687Y-124194968D01*
X120424687Y-124194968D02*
X120377068Y-124147348D01*
X120377068Y-124147348D02*
X120329449Y-124052110D01*
X120329449Y-124052110D02*
X120329449Y-123956872D01*
X120329449Y-123956872D02*
X120377068Y-123861634D01*
X120377068Y-123861634D02*
X120424687Y-123814015D01*
X120424687Y-123814015D02*
X120519925Y-123766396D01*
X120519925Y-123766396D02*
X120710401Y-123718777D01*
X120710401Y-123718777D02*
X120805639Y-123671158D01*
X120805639Y-123671158D02*
X120853258Y-123623539D01*
X120853258Y-123623539D02*
X120900877Y-123528301D01*
X120900877Y-123528301D02*
X120900877Y-123433063D01*
X120900877Y-123433063D02*
X120853258Y-123337825D01*
X120853258Y-123337825D02*
X120805639Y-123290206D01*
X120805639Y-123290206D02*
X120710401Y-123242587D01*
X120710401Y-123242587D02*
X120472306Y-123242587D01*
X120472306Y-123242587D02*
X120329449Y-123290206D01*
X119900877Y-124242587D02*
X119900877Y-123242587D01*
X119900877Y-123242587D02*
X119662782Y-123242587D01*
X119662782Y-123242587D02*
X119519925Y-123290206D01*
X119519925Y-123290206D02*
X119424687Y-123385444D01*
X119424687Y-123385444D02*
X119377068Y-123480682D01*
X119377068Y-123480682D02*
X119329449Y-123671158D01*
X119329449Y-123671158D02*
X119329449Y-123814015D01*
X119329449Y-123814015D02*
X119377068Y-124004491D01*
X119377068Y-124004491D02*
X119424687Y-124099729D01*
X119424687Y-124099729D02*
X119519925Y-124194968D01*
X119519925Y-124194968D02*
X119662782Y-124242587D01*
X119662782Y-124242587D02*
X119900877Y-124242587D01*
X118138972Y-124242587D02*
X118138972Y-123242587D01*
X118138972Y-123242587D02*
X117805639Y-123956872D01*
X117805639Y-123956872D02*
X117472306Y-123242587D01*
X117472306Y-123242587D02*
X117472306Y-124242587D01*
X116805639Y-123242587D02*
X116615163Y-123242587D01*
X116615163Y-123242587D02*
X116519925Y-123290206D01*
X116519925Y-123290206D02*
X116424687Y-123385444D01*
X116424687Y-123385444D02*
X116377068Y-123575920D01*
X116377068Y-123575920D02*
X116377068Y-123909253D01*
X116377068Y-123909253D02*
X116424687Y-124099729D01*
X116424687Y-124099729D02*
X116519925Y-124194968D01*
X116519925Y-124194968D02*
X116615163Y-124242587D01*
X116615163Y-124242587D02*
X116805639Y-124242587D01*
X116805639Y-124242587D02*
X116900877Y-124194968D01*
X116900877Y-124194968D02*
X116996115Y-124099729D01*
X116996115Y-124099729D02*
X117043734Y-123909253D01*
X117043734Y-123909253D02*
X117043734Y-123575920D01*
X117043734Y-123575920D02*
X116996115Y-123385444D01*
X116996115Y-123385444D02*
X116900877Y-123290206D01*
X116900877Y-123290206D02*
X116805639Y-123242587D01*
X115996115Y-124194968D02*
X115853258Y-124242587D01*
X115853258Y-124242587D02*
X115615163Y-124242587D01*
X115615163Y-124242587D02*
X115519925Y-124194968D01*
X115519925Y-124194968D02*
X115472306Y-124147348D01*
X115472306Y-124147348D02*
X115424687Y-124052110D01*
X115424687Y-124052110D02*
X115424687Y-123956872D01*
X115424687Y-123956872D02*
X115472306Y-123861634D01*
X115472306Y-123861634D02*
X115519925Y-123814015D01*
X115519925Y-123814015D02*
X115615163Y-123766396D01*
X115615163Y-123766396D02*
X115805639Y-123718777D01*
X115805639Y-123718777D02*
X115900877Y-123671158D01*
X115900877Y-123671158D02*
X115948496Y-123623539D01*
X115948496Y-123623539D02*
X115996115Y-123528301D01*
X115996115Y-123528301D02*
X115996115Y-123433063D01*
X115996115Y-123433063D02*
X115948496Y-123337825D01*
X115948496Y-123337825D02*
X115900877Y-123290206D01*
X115900877Y-123290206D02*
X115805639Y-123242587D01*
X115805639Y-123242587D02*
X115567544Y-123242587D01*
X115567544Y-123242587D02*
X115424687Y-123290206D01*
X114996115Y-124242587D02*
X114996115Y-123242587D01*
X123472306Y-125852531D02*
X124043734Y-125852531D01*
X123758020Y-125852531D02*
X123758020Y-124852531D01*
X123758020Y-124852531D02*
X123853258Y-124995388D01*
X123853258Y-124995388D02*
X123948496Y-125090626D01*
X123948496Y-125090626D02*
X124043734Y-125138245D01*
X123138972Y-124852531D02*
X122519925Y-124852531D01*
X122519925Y-124852531D02*
X122853258Y-125233483D01*
X122853258Y-125233483D02*
X122710401Y-125233483D01*
X122710401Y-125233483D02*
X122615163Y-125281102D01*
X122615163Y-125281102D02*
X122567544Y-125328721D01*
X122567544Y-125328721D02*
X122519925Y-125423959D01*
X122519925Y-125423959D02*
X122519925Y-125662054D01*
X122519925Y-125662054D02*
X122567544Y-125757292D01*
X122567544Y-125757292D02*
X122615163Y-125804912D01*
X122615163Y-125804912D02*
X122710401Y-125852531D01*
X122710401Y-125852531D02*
X122996115Y-125852531D01*
X122996115Y-125852531D02*
X123091353Y-125804912D01*
X123091353Y-125804912D02*
X123138972Y-125757292D01*
X122091353Y-125471578D02*
X121329449Y-125471578D01*
X120900877Y-125804912D02*
X120758020Y-125852531D01*
X120758020Y-125852531D02*
X120519925Y-125852531D01*
X120519925Y-125852531D02*
X120424687Y-125804912D01*
X120424687Y-125804912D02*
X120377068Y-125757292D01*
X120377068Y-125757292D02*
X120329449Y-125662054D01*
X120329449Y-125662054D02*
X120329449Y-125566816D01*
X120329449Y-125566816D02*
X120377068Y-125471578D01*
X120377068Y-125471578D02*
X120424687Y-125423959D01*
X120424687Y-125423959D02*
X120519925Y-125376340D01*
X120519925Y-125376340D02*
X120710401Y-125328721D01*
X120710401Y-125328721D02*
X120805639Y-125281102D01*
X120805639Y-125281102D02*
X120853258Y-125233483D01*
X120853258Y-125233483D02*
X120900877Y-125138245D01*
X120900877Y-125138245D02*
X120900877Y-125043007D01*
X120900877Y-125043007D02*
X120853258Y-124947769D01*
X120853258Y-124947769D02*
X120805639Y-124900150D01*
X120805639Y-124900150D02*
X120710401Y-124852531D01*
X120710401Y-124852531D02*
X120472306Y-124852531D01*
X120472306Y-124852531D02*
X120329449Y-124900150D01*
X119900877Y-125852531D02*
X119900877Y-124852531D01*
X119900877Y-124852531D02*
X119662782Y-124852531D01*
X119662782Y-124852531D02*
X119519925Y-124900150D01*
X119519925Y-124900150D02*
X119424687Y-124995388D01*
X119424687Y-124995388D02*
X119377068Y-125090626D01*
X119377068Y-125090626D02*
X119329449Y-125281102D01*
X119329449Y-125281102D02*
X119329449Y-125423959D01*
X119329449Y-125423959D02*
X119377068Y-125614435D01*
X119377068Y-125614435D02*
X119424687Y-125709673D01*
X119424687Y-125709673D02*
X119519925Y-125804912D01*
X119519925Y-125804912D02*
X119662782Y-125852531D01*
X119662782Y-125852531D02*
X119900877Y-125852531D01*
X118186591Y-125804912D02*
X118043734Y-125852531D01*
X118043734Y-125852531D02*
X117805639Y-125852531D01*
X117805639Y-125852531D02*
X117710401Y-125804912D01*
X117710401Y-125804912D02*
X117662782Y-125757292D01*
X117662782Y-125757292D02*
X117615163Y-125662054D01*
X117615163Y-125662054D02*
X117615163Y-125566816D01*
X117615163Y-125566816D02*
X117662782Y-125471578D01*
X117662782Y-125471578D02*
X117710401Y-125423959D01*
X117710401Y-125423959D02*
X117805639Y-125376340D01*
X117805639Y-125376340D02*
X117996115Y-125328721D01*
X117996115Y-125328721D02*
X118091353Y-125281102D01*
X118091353Y-125281102D02*
X118138972Y-125233483D01*
X118138972Y-125233483D02*
X118186591Y-125138245D01*
X118186591Y-125138245D02*
X118186591Y-125043007D01*
X118186591Y-125043007D02*
X118138972Y-124947769D01*
X118138972Y-124947769D02*
X118091353Y-124900150D01*
X118091353Y-124900150D02*
X117996115Y-124852531D01*
X117996115Y-124852531D02*
X117758020Y-124852531D01*
X117758020Y-124852531D02*
X117615163Y-124900150D01*
X116615163Y-125757292D02*
X116662782Y-125804912D01*
X116662782Y-125804912D02*
X116805639Y-125852531D01*
X116805639Y-125852531D02*
X116900877Y-125852531D01*
X116900877Y-125852531D02*
X117043734Y-125804912D01*
X117043734Y-125804912D02*
X117138972Y-125709673D01*
X117138972Y-125709673D02*
X117186591Y-125614435D01*
X117186591Y-125614435D02*
X117234210Y-125423959D01*
X117234210Y-125423959D02*
X117234210Y-125281102D01*
X117234210Y-125281102D02*
X117186591Y-125090626D01*
X117186591Y-125090626D02*
X117138972Y-124995388D01*
X117138972Y-124995388D02*
X117043734Y-124900150D01*
X117043734Y-124900150D02*
X116900877Y-124852531D01*
X116900877Y-124852531D02*
X116805639Y-124852531D01*
X116805639Y-124852531D02*
X116662782Y-124900150D01*
X116662782Y-124900150D02*
X116615163Y-124947769D01*
X116186591Y-125852531D02*
X116186591Y-124852531D01*
X115615163Y-125852531D02*
X116043734Y-125281102D01*
X115615163Y-124852531D02*
X116186591Y-125423959D01*
X123472306Y-127462475D02*
X124043734Y-127462475D01*
X123758020Y-127462475D02*
X123758020Y-126462475D01*
X123758020Y-126462475D02*
X123853258Y-126605332D01*
X123853258Y-126605332D02*
X123948496Y-126700570D01*
X123948496Y-126700570D02*
X124043734Y-126748189D01*
X122615163Y-126795808D02*
X122615163Y-127462475D01*
X122853258Y-126414856D02*
X123091353Y-127129141D01*
X123091353Y-127129141D02*
X122472306Y-127129141D01*
X122091353Y-127081522D02*
X121329449Y-127081522D01*
X120900877Y-127414856D02*
X120758020Y-127462475D01*
X120758020Y-127462475D02*
X120519925Y-127462475D01*
X120519925Y-127462475D02*
X120424687Y-127414856D01*
X120424687Y-127414856D02*
X120377068Y-127367236D01*
X120377068Y-127367236D02*
X120329449Y-127271998D01*
X120329449Y-127271998D02*
X120329449Y-127176760D01*
X120329449Y-127176760D02*
X120377068Y-127081522D01*
X120377068Y-127081522D02*
X120424687Y-127033903D01*
X120424687Y-127033903D02*
X120519925Y-126986284D01*
X120519925Y-126986284D02*
X120710401Y-126938665D01*
X120710401Y-126938665D02*
X120805639Y-126891046D01*
X120805639Y-126891046D02*
X120853258Y-126843427D01*
X120853258Y-126843427D02*
X120900877Y-126748189D01*
X120900877Y-126748189D02*
X120900877Y-126652951D01*
X120900877Y-126652951D02*
X120853258Y-126557713D01*
X120853258Y-126557713D02*
X120805639Y-126510094D01*
X120805639Y-126510094D02*
X120710401Y-126462475D01*
X120710401Y-126462475D02*
X120472306Y-126462475D01*
X120472306Y-126462475D02*
X120329449Y-126510094D01*
X119900877Y-127462475D02*
X119900877Y-126462475D01*
X119900877Y-126462475D02*
X119662782Y-126462475D01*
X119662782Y-126462475D02*
X119519925Y-126510094D01*
X119519925Y-126510094D02*
X119424687Y-126605332D01*
X119424687Y-126605332D02*
X119377068Y-126700570D01*
X119377068Y-126700570D02*
X119329449Y-126891046D01*
X119329449Y-126891046D02*
X119329449Y-127033903D01*
X119329449Y-127033903D02*
X119377068Y-127224379D01*
X119377068Y-127224379D02*
X119424687Y-127319617D01*
X119424687Y-127319617D02*
X119519925Y-127414856D01*
X119519925Y-127414856D02*
X119662782Y-127462475D01*
X119662782Y-127462475D02*
X119900877Y-127462475D01*
X118138972Y-127462475D02*
X118138972Y-126462475D01*
X118138972Y-126462475D02*
X117805639Y-127176760D01*
X117805639Y-127176760D02*
X117472306Y-126462475D01*
X117472306Y-126462475D02*
X117472306Y-127462475D01*
X116996115Y-127462475D02*
X116996115Y-126462475D01*
X116567544Y-127414856D02*
X116424687Y-127462475D01*
X116424687Y-127462475D02*
X116186592Y-127462475D01*
X116186592Y-127462475D02*
X116091354Y-127414856D01*
X116091354Y-127414856D02*
X116043735Y-127367236D01*
X116043735Y-127367236D02*
X115996116Y-127271998D01*
X115996116Y-127271998D02*
X115996116Y-127176760D01*
X115996116Y-127176760D02*
X116043735Y-127081522D01*
X116043735Y-127081522D02*
X116091354Y-127033903D01*
X116091354Y-127033903D02*
X116186592Y-126986284D01*
X116186592Y-126986284D02*
X116377068Y-126938665D01*
X116377068Y-126938665D02*
X116472306Y-126891046D01*
X116472306Y-126891046D02*
X116519925Y-126843427D01*
X116519925Y-126843427D02*
X116567544Y-126748189D01*
X116567544Y-126748189D02*
X116567544Y-126652951D01*
X116567544Y-126652951D02*
X116519925Y-126557713D01*
X116519925Y-126557713D02*
X116472306Y-126510094D01*
X116472306Y-126510094D02*
X116377068Y-126462475D01*
X116377068Y-126462475D02*
X116138973Y-126462475D01*
X116138973Y-126462475D02*
X115996116Y-126510094D01*
X115377068Y-126462475D02*
X115186592Y-126462475D01*
X115186592Y-126462475D02*
X115091354Y-126510094D01*
X115091354Y-126510094D02*
X114996116Y-126605332D01*
X114996116Y-126605332D02*
X114948497Y-126795808D01*
X114948497Y-126795808D02*
X114948497Y-127129141D01*
X114948497Y-127129141D02*
X114996116Y-127319617D01*
X114996116Y-127319617D02*
X115091354Y-127414856D01*
X115091354Y-127414856D02*
X115186592Y-127462475D01*
X115186592Y-127462475D02*
X115377068Y-127462475D01*
X115377068Y-127462475D02*
X115472306Y-127414856D01*
X115472306Y-127414856D02*
X115567544Y-127319617D01*
X115567544Y-127319617D02*
X115615163Y-127129141D01*
X115615163Y-127129141D02*
X115615163Y-126795808D01*
X115615163Y-126795808D02*
X115567544Y-126605332D01*
X115567544Y-126605332D02*
X115472306Y-126510094D01*
X115472306Y-126510094D02*
X115377068Y-126462475D01*
X123472306Y-129072419D02*
X124043734Y-129072419D01*
X123758020Y-129072419D02*
X123758020Y-128072419D01*
X123758020Y-128072419D02*
X123853258Y-128215276D01*
X123853258Y-128215276D02*
X123948496Y-128310514D01*
X123948496Y-128310514D02*
X124043734Y-128358133D01*
X122567544Y-128072419D02*
X123043734Y-128072419D01*
X123043734Y-128072419D02*
X123091353Y-128548609D01*
X123091353Y-128548609D02*
X123043734Y-128500990D01*
X123043734Y-128500990D02*
X122948496Y-128453371D01*
X122948496Y-128453371D02*
X122710401Y-128453371D01*
X122710401Y-128453371D02*
X122615163Y-128500990D01*
X122615163Y-128500990D02*
X122567544Y-128548609D01*
X122567544Y-128548609D02*
X122519925Y-128643847D01*
X122519925Y-128643847D02*
X122519925Y-128881942D01*
X122519925Y-128881942D02*
X122567544Y-128977180D01*
X122567544Y-128977180D02*
X122615163Y-129024800D01*
X122615163Y-129024800D02*
X122710401Y-129072419D01*
X122710401Y-129072419D02*
X122948496Y-129072419D01*
X122948496Y-129072419D02*
X123043734Y-129024800D01*
X123043734Y-129024800D02*
X123091353Y-128977180D01*
X122091353Y-128691466D02*
X121329449Y-128691466D01*
X120996115Y-128072419D02*
X120424687Y-128072419D01*
X120710401Y-129072419D02*
X120710401Y-128072419D01*
X120091353Y-129072419D02*
X120091353Y-128072419D01*
X120091353Y-128072419D02*
X119710401Y-128072419D01*
X119710401Y-128072419D02*
X119615163Y-128120038D01*
X119615163Y-128120038D02*
X119567544Y-128167657D01*
X119567544Y-128167657D02*
X119519925Y-128262895D01*
X119519925Y-128262895D02*
X119519925Y-128405752D01*
X119519925Y-128405752D02*
X119567544Y-128500990D01*
X119567544Y-128500990D02*
X119615163Y-128548609D01*
X119615163Y-128548609D02*
X119710401Y-128596228D01*
X119710401Y-128596228D02*
X120091353Y-128596228D01*
X119138972Y-129024800D02*
X118996115Y-129072419D01*
X118996115Y-129072419D02*
X118758020Y-129072419D01*
X118758020Y-129072419D02*
X118662782Y-129024800D01*
X118662782Y-129024800D02*
X118615163Y-128977180D01*
X118615163Y-128977180D02*
X118567544Y-128881942D01*
X118567544Y-128881942D02*
X118567544Y-128786704D01*
X118567544Y-128786704D02*
X118615163Y-128691466D01*
X118615163Y-128691466D02*
X118662782Y-128643847D01*
X118662782Y-128643847D02*
X118758020Y-128596228D01*
X118758020Y-128596228D02*
X118948496Y-128548609D01*
X118948496Y-128548609D02*
X119043734Y-128500990D01*
X119043734Y-128500990D02*
X119091353Y-128453371D01*
X119091353Y-128453371D02*
X119138972Y-128358133D01*
X119138972Y-128358133D02*
X119138972Y-128262895D01*
X119138972Y-128262895D02*
X119091353Y-128167657D01*
X119091353Y-128167657D02*
X119043734Y-128120038D01*
X119043734Y-128120038D02*
X118948496Y-128072419D01*
X118948496Y-128072419D02*
X118710401Y-128072419D01*
X118710401Y-128072419D02*
X118567544Y-128120038D01*
X117377067Y-129072419D02*
X117377067Y-128072419D01*
X117377067Y-128072419D02*
X116996115Y-128072419D01*
X116996115Y-128072419D02*
X116900877Y-128120038D01*
X116900877Y-128120038D02*
X116853258Y-128167657D01*
X116853258Y-128167657D02*
X116805639Y-128262895D01*
X116805639Y-128262895D02*
X116805639Y-128405752D01*
X116805639Y-128405752D02*
X116853258Y-128500990D01*
X116853258Y-128500990D02*
X116900877Y-128548609D01*
X116900877Y-128548609D02*
X116996115Y-128596228D01*
X116996115Y-128596228D02*
X117377067Y-128596228D01*
X116472305Y-128405752D02*
X116281829Y-129072419D01*
X116281829Y-129072419D02*
X116091353Y-128596228D01*
X116091353Y-128596228D02*
X115900877Y-129072419D01*
X115900877Y-129072419D02*
X115710401Y-128405752D01*
X115329448Y-129072419D02*
X115329448Y-128405752D01*
X115329448Y-128596228D02*
X115281829Y-128500990D01*
X115281829Y-128500990D02*
X115234210Y-128453371D01*
X115234210Y-128453371D02*
X115138972Y-128405752D01*
X115138972Y-128405752D02*
X115043734Y-128405752D01*
X114710400Y-128691466D02*
X113948496Y-128691466D01*
X113281829Y-128072419D02*
X113091353Y-128072419D01*
X113091353Y-128072419D02*
X112996115Y-128120038D01*
X112996115Y-128120038D02*
X112900877Y-128215276D01*
X112900877Y-128215276D02*
X112853258Y-128405752D01*
X112853258Y-128405752D02*
X112853258Y-128739085D01*
X112853258Y-128739085D02*
X112900877Y-128929561D01*
X112900877Y-128929561D02*
X112996115Y-129024800D01*
X112996115Y-129024800D02*
X113091353Y-129072419D01*
X113091353Y-129072419D02*
X113281829Y-129072419D01*
X113281829Y-129072419D02*
X113377067Y-129024800D01*
X113377067Y-129024800D02*
X113472305Y-128929561D01*
X113472305Y-128929561D02*
X113519924Y-128739085D01*
X113519924Y-128739085D02*
X113519924Y-128405752D01*
X113519924Y-128405752D02*
X113472305Y-128215276D01*
X113472305Y-128215276D02*
X113377067Y-128120038D01*
X113377067Y-128120038D02*
X113281829Y-128072419D01*
X111996115Y-128405752D02*
X111996115Y-129072419D01*
X112424686Y-128405752D02*
X112424686Y-128929561D01*
X112424686Y-128929561D02*
X112377067Y-129024800D01*
X112377067Y-129024800D02*
X112281829Y-129072419D01*
X112281829Y-129072419D02*
X112138972Y-129072419D01*
X112138972Y-129072419D02*
X112043734Y-129024800D01*
X112043734Y-129024800D02*
X111996115Y-128977180D01*
X111662781Y-128405752D02*
X111281829Y-128405752D01*
X111519924Y-128072419D02*
X111519924Y-128929561D01*
X111519924Y-128929561D02*
X111472305Y-129024800D01*
X111472305Y-129024800D02*
X111377067Y-129072419D01*
X111377067Y-129072419D02*
X111281829Y-129072419D01*
X157748609Y-74637217D02*
X157796228Y-74780074D01*
X157796228Y-74780074D02*
X157843847Y-74827693D01*
X157843847Y-74827693D02*
X157939085Y-74875312D01*
X157939085Y-74875312D02*
X158081942Y-74875312D01*
X158081942Y-74875312D02*
X158177180Y-74827693D01*
X158177180Y-74827693D02*
X158224800Y-74780074D01*
X158224800Y-74780074D02*
X158272419Y-74684836D01*
X158272419Y-74684836D02*
X158272419Y-74303884D01*
X158272419Y-74303884D02*
X157272419Y-74303884D01*
X157272419Y-74303884D02*
X157272419Y-74637217D01*
X157272419Y-74637217D02*
X157320038Y-74732455D01*
X157320038Y-74732455D02*
X157367657Y-74780074D01*
X157367657Y-74780074D02*
X157462895Y-74827693D01*
X157462895Y-74827693D02*
X157558133Y-74827693D01*
X157558133Y-74827693D02*
X157653371Y-74780074D01*
X157653371Y-74780074D02*
X157700990Y-74732455D01*
X157700990Y-74732455D02*
X157748609Y-74637217D01*
X157748609Y-74637217D02*
X157748609Y-74303884D01*
X157986704Y-75256265D02*
X157986704Y-75732455D01*
X158272419Y-75161027D02*
X157272419Y-75494360D01*
X157272419Y-75494360D02*
X158272419Y-75827693D01*
X158272419Y-76732455D02*
X157796228Y-76399122D01*
X158272419Y-76161027D02*
X157272419Y-76161027D01*
X157272419Y-76161027D02*
X157272419Y-76541979D01*
X157272419Y-76541979D02*
X157320038Y-76637217D01*
X157320038Y-76637217D02*
X157367657Y-76684836D01*
X157367657Y-76684836D02*
X157462895Y-76732455D01*
X157462895Y-76732455D02*
X157605752Y-76732455D01*
X157605752Y-76732455D02*
X157700990Y-76684836D01*
X157700990Y-76684836D02*
X157748609Y-76637217D01*
X157748609Y-76637217D02*
X157796228Y-76541979D01*
X157796228Y-76541979D02*
X157796228Y-76161027D01*
X157272419Y-77351503D02*
X157272419Y-77541979D01*
X157272419Y-77541979D02*
X157320038Y-77637217D01*
X157320038Y-77637217D02*
X157415276Y-77732455D01*
X157415276Y-77732455D02*
X157605752Y-77780074D01*
X157605752Y-77780074D02*
X157939085Y-77780074D01*
X157939085Y-77780074D02*
X158129561Y-77732455D01*
X158129561Y-77732455D02*
X158224800Y-77637217D01*
X158224800Y-77637217D02*
X158272419Y-77541979D01*
X158272419Y-77541979D02*
X158272419Y-77351503D01*
X158272419Y-77351503D02*
X158224800Y-77256265D01*
X158224800Y-77256265D02*
X158129561Y-77161027D01*
X158129561Y-77161027D02*
X157939085Y-77113408D01*
X157939085Y-77113408D02*
X157605752Y-77113408D01*
X157605752Y-77113408D02*
X157415276Y-77161027D01*
X157415276Y-77161027D02*
X157320038Y-77256265D01*
X157320038Y-77256265D02*
X157272419Y-77351503D01*
X157272419Y-78827694D02*
X157272419Y-79399122D01*
X158272419Y-79113408D02*
X157272419Y-79113408D01*
X158272419Y-79732456D02*
X157272419Y-79732456D01*
X157272419Y-79732456D02*
X157986704Y-80065789D01*
X157986704Y-80065789D02*
X157272419Y-80399122D01*
X157272419Y-80399122D02*
X158272419Y-80399122D01*
X158272419Y-81446741D02*
X157796228Y-81113408D01*
X158272419Y-80875313D02*
X157272419Y-80875313D01*
X157272419Y-80875313D02*
X157272419Y-81256265D01*
X157272419Y-81256265D02*
X157320038Y-81351503D01*
X157320038Y-81351503D02*
X157367657Y-81399122D01*
X157367657Y-81399122D02*
X157462895Y-81446741D01*
X157462895Y-81446741D02*
X157605752Y-81446741D01*
X157605752Y-81446741D02*
X157700990Y-81399122D01*
X157700990Y-81399122D02*
X157748609Y-81351503D01*
X157748609Y-81351503D02*
X157796228Y-81256265D01*
X157796228Y-81256265D02*
X157796228Y-80875313D01*
X136988972Y-116792867D02*
X136417544Y-116792867D01*
X136703258Y-117792867D02*
X136703258Y-116792867D01*
X135703258Y-117745248D02*
X135798496Y-117792867D01*
X135798496Y-117792867D02*
X135988972Y-117792867D01*
X135988972Y-117792867D02*
X136084210Y-117745248D01*
X136084210Y-117745248D02*
X136131829Y-117650009D01*
X136131829Y-117650009D02*
X136131829Y-117269057D01*
X136131829Y-117269057D02*
X136084210Y-117173819D01*
X136084210Y-117173819D02*
X135988972Y-117126200D01*
X135988972Y-117126200D02*
X135798496Y-117126200D01*
X135798496Y-117126200D02*
X135703258Y-117173819D01*
X135703258Y-117173819D02*
X135655639Y-117269057D01*
X135655639Y-117269057D02*
X135655639Y-117364295D01*
X135655639Y-117364295D02*
X136131829Y-117459533D01*
X135274686Y-117745248D02*
X135179448Y-117792867D01*
X135179448Y-117792867D02*
X134988972Y-117792867D01*
X134988972Y-117792867D02*
X134893734Y-117745248D01*
X134893734Y-117745248D02*
X134846115Y-117650009D01*
X134846115Y-117650009D02*
X134846115Y-117602390D01*
X134846115Y-117602390D02*
X134893734Y-117507152D01*
X134893734Y-117507152D02*
X134988972Y-117459533D01*
X134988972Y-117459533D02*
X135131829Y-117459533D01*
X135131829Y-117459533D02*
X135227067Y-117411914D01*
X135227067Y-117411914D02*
X135274686Y-117316676D01*
X135274686Y-117316676D02*
X135274686Y-117269057D01*
X135274686Y-117269057D02*
X135227067Y-117173819D01*
X135227067Y-117173819D02*
X135131829Y-117126200D01*
X135131829Y-117126200D02*
X134988972Y-117126200D01*
X134988972Y-117126200D02*
X134893734Y-117173819D01*
X134560400Y-117126200D02*
X134179448Y-117126200D01*
X134417543Y-116792867D02*
X134417543Y-117650009D01*
X134417543Y-117650009D02*
X134369924Y-117745248D01*
X134369924Y-117745248D02*
X134274686Y-117792867D01*
X134274686Y-117792867D02*
X134179448Y-117792867D01*
X133846114Y-117792867D02*
X133846114Y-117126200D01*
X133846114Y-116792867D02*
X133893733Y-116840486D01*
X133893733Y-116840486D02*
X133846114Y-116888105D01*
X133846114Y-116888105D02*
X133798495Y-116840486D01*
X133798495Y-116840486D02*
X133846114Y-116792867D01*
X133846114Y-116792867D02*
X133846114Y-116888105D01*
X133369924Y-117126200D02*
X133369924Y-117792867D01*
X133369924Y-117221438D02*
X133322305Y-117173819D01*
X133322305Y-117173819D02*
X133227067Y-117126200D01*
X133227067Y-117126200D02*
X133084210Y-117126200D01*
X133084210Y-117126200D02*
X132988972Y-117173819D01*
X132988972Y-117173819D02*
X132941353Y-117269057D01*
X132941353Y-117269057D02*
X132941353Y-117792867D01*
X132036591Y-117126200D02*
X132036591Y-117935724D01*
X132036591Y-117935724D02*
X132084210Y-118030962D01*
X132084210Y-118030962D02*
X132131829Y-118078581D01*
X132131829Y-118078581D02*
X132227067Y-118126200D01*
X132227067Y-118126200D02*
X132369924Y-118126200D01*
X132369924Y-118126200D02*
X132465162Y-118078581D01*
X132036591Y-117745248D02*
X132131829Y-117792867D01*
X132131829Y-117792867D02*
X132322305Y-117792867D01*
X132322305Y-117792867D02*
X132417543Y-117745248D01*
X132417543Y-117745248D02*
X132465162Y-117697628D01*
X132465162Y-117697628D02*
X132512781Y-117602390D01*
X132512781Y-117602390D02*
X132512781Y-117316676D01*
X132512781Y-117316676D02*
X132465162Y-117221438D01*
X132465162Y-117221438D02*
X132417543Y-117173819D01*
X132417543Y-117173819D02*
X132322305Y-117126200D01*
X132322305Y-117126200D02*
X132131829Y-117126200D01*
X132131829Y-117126200D02*
X132036591Y-117173819D01*
X130798495Y-117792867D02*
X130798495Y-116792867D01*
X130798495Y-116792867D02*
X130417543Y-116792867D01*
X130417543Y-116792867D02*
X130322305Y-116840486D01*
X130322305Y-116840486D02*
X130274686Y-116888105D01*
X130274686Y-116888105D02*
X130227067Y-116983343D01*
X130227067Y-116983343D02*
X130227067Y-117126200D01*
X130227067Y-117126200D02*
X130274686Y-117221438D01*
X130274686Y-117221438D02*
X130322305Y-117269057D01*
X130322305Y-117269057D02*
X130417543Y-117316676D01*
X130417543Y-117316676D02*
X130798495Y-117316676D01*
X129655638Y-117792867D02*
X129750876Y-117745248D01*
X129750876Y-117745248D02*
X129798495Y-117697628D01*
X129798495Y-117697628D02*
X129846114Y-117602390D01*
X129846114Y-117602390D02*
X129846114Y-117316676D01*
X129846114Y-117316676D02*
X129798495Y-117221438D01*
X129798495Y-117221438D02*
X129750876Y-117173819D01*
X129750876Y-117173819D02*
X129655638Y-117126200D01*
X129655638Y-117126200D02*
X129512781Y-117126200D01*
X129512781Y-117126200D02*
X129417543Y-117173819D01*
X129417543Y-117173819D02*
X129369924Y-117221438D01*
X129369924Y-117221438D02*
X129322305Y-117316676D01*
X129322305Y-117316676D02*
X129322305Y-117602390D01*
X129322305Y-117602390D02*
X129369924Y-117697628D01*
X129369924Y-117697628D02*
X129417543Y-117745248D01*
X129417543Y-117745248D02*
X129512781Y-117792867D01*
X129512781Y-117792867D02*
X129655638Y-117792867D01*
X128893733Y-117792867D02*
X128893733Y-117126200D01*
X128893733Y-116792867D02*
X128941352Y-116840486D01*
X128941352Y-116840486D02*
X128893733Y-116888105D01*
X128893733Y-116888105D02*
X128846114Y-116840486D01*
X128846114Y-116840486D02*
X128893733Y-116792867D01*
X128893733Y-116792867D02*
X128893733Y-116888105D01*
X128417543Y-117126200D02*
X128417543Y-117792867D01*
X128417543Y-117221438D02*
X128369924Y-117173819D01*
X128369924Y-117173819D02*
X128274686Y-117126200D01*
X128274686Y-117126200D02*
X128131829Y-117126200D01*
X128131829Y-117126200D02*
X128036591Y-117173819D01*
X128036591Y-117173819D02*
X127988972Y-117269057D01*
X127988972Y-117269057D02*
X127988972Y-117792867D01*
X127655638Y-117126200D02*
X127274686Y-117126200D01*
X127512781Y-116792867D02*
X127512781Y-117650009D01*
X127512781Y-117650009D02*
X127465162Y-117745248D01*
X127465162Y-117745248D02*
X127369924Y-117792867D01*
X127369924Y-117792867D02*
X127274686Y-117792867D01*
X125703257Y-117792867D02*
X126179447Y-117792867D01*
X126179447Y-117792867D02*
X126179447Y-116792867D01*
X124988971Y-117745248D02*
X125084209Y-117792867D01*
X125084209Y-117792867D02*
X125274685Y-117792867D01*
X125274685Y-117792867D02*
X125369923Y-117745248D01*
X125369923Y-117745248D02*
X125417542Y-117650009D01*
X125417542Y-117650009D02*
X125417542Y-117269057D01*
X125417542Y-117269057D02*
X125369923Y-117173819D01*
X125369923Y-117173819D02*
X125274685Y-117126200D01*
X125274685Y-117126200D02*
X125084209Y-117126200D01*
X125084209Y-117126200D02*
X124988971Y-117173819D01*
X124988971Y-117173819D02*
X124941352Y-117269057D01*
X124941352Y-117269057D02*
X124941352Y-117364295D01*
X124941352Y-117364295D02*
X125417542Y-117459533D01*
X124084209Y-117126200D02*
X124084209Y-117935724D01*
X124084209Y-117935724D02*
X124131828Y-118030962D01*
X124131828Y-118030962D02*
X124179447Y-118078581D01*
X124179447Y-118078581D02*
X124274685Y-118126200D01*
X124274685Y-118126200D02*
X124417542Y-118126200D01*
X124417542Y-118126200D02*
X124512780Y-118078581D01*
X124084209Y-117745248D02*
X124179447Y-117792867D01*
X124179447Y-117792867D02*
X124369923Y-117792867D01*
X124369923Y-117792867D02*
X124465161Y-117745248D01*
X124465161Y-117745248D02*
X124512780Y-117697628D01*
X124512780Y-117697628D02*
X124560399Y-117602390D01*
X124560399Y-117602390D02*
X124560399Y-117316676D01*
X124560399Y-117316676D02*
X124512780Y-117221438D01*
X124512780Y-117221438D02*
X124465161Y-117173819D01*
X124465161Y-117173819D02*
X124369923Y-117126200D01*
X124369923Y-117126200D02*
X124179447Y-117126200D01*
X124179447Y-117126200D02*
X124084209Y-117173819D01*
X123227066Y-117745248D02*
X123322304Y-117792867D01*
X123322304Y-117792867D02*
X123512780Y-117792867D01*
X123512780Y-117792867D02*
X123608018Y-117745248D01*
X123608018Y-117745248D02*
X123655637Y-117650009D01*
X123655637Y-117650009D02*
X123655637Y-117269057D01*
X123655637Y-117269057D02*
X123608018Y-117173819D01*
X123608018Y-117173819D02*
X123512780Y-117126200D01*
X123512780Y-117126200D02*
X123322304Y-117126200D01*
X123322304Y-117126200D02*
X123227066Y-117173819D01*
X123227066Y-117173819D02*
X123179447Y-117269057D01*
X123179447Y-117269057D02*
X123179447Y-117364295D01*
X123179447Y-117364295D02*
X123655637Y-117459533D01*
X122750875Y-117126200D02*
X122750875Y-117792867D01*
X122750875Y-117221438D02*
X122703256Y-117173819D01*
X122703256Y-117173819D02*
X122608018Y-117126200D01*
X122608018Y-117126200D02*
X122465161Y-117126200D01*
X122465161Y-117126200D02*
X122369923Y-117173819D01*
X122369923Y-117173819D02*
X122322304Y-117269057D01*
X122322304Y-117269057D02*
X122322304Y-117792867D01*
X121417542Y-117792867D02*
X121417542Y-116792867D01*
X121417542Y-117745248D02*
X121512780Y-117792867D01*
X121512780Y-117792867D02*
X121703256Y-117792867D01*
X121703256Y-117792867D02*
X121798494Y-117745248D01*
X121798494Y-117745248D02*
X121846113Y-117697628D01*
X121846113Y-117697628D02*
X121893732Y-117602390D01*
X121893732Y-117602390D02*
X121893732Y-117316676D01*
X121893732Y-117316676D02*
X121846113Y-117221438D01*
X121846113Y-117221438D02*
X121798494Y-117173819D01*
X121798494Y-117173819D02*
X121703256Y-117126200D01*
X121703256Y-117126200D02*
X121512780Y-117126200D01*
X121512780Y-117126200D02*
X121417542Y-117173819D01*
X136322306Y-119402811D02*
X136893734Y-119402811D01*
X136608020Y-119402811D02*
X136608020Y-118402811D01*
X136608020Y-118402811D02*
X136703258Y-118545668D01*
X136703258Y-118545668D02*
X136798496Y-118640906D01*
X136798496Y-118640906D02*
X136893734Y-118688525D01*
X135893734Y-119021858D02*
X135131830Y-119021858D01*
X134131830Y-118450430D02*
X134227068Y-118402811D01*
X134227068Y-118402811D02*
X134369925Y-118402811D01*
X134369925Y-118402811D02*
X134512782Y-118450430D01*
X134512782Y-118450430D02*
X134608020Y-118545668D01*
X134608020Y-118545668D02*
X134655639Y-118640906D01*
X134655639Y-118640906D02*
X134703258Y-118831382D01*
X134703258Y-118831382D02*
X134703258Y-118974239D01*
X134703258Y-118974239D02*
X134655639Y-119164715D01*
X134655639Y-119164715D02*
X134608020Y-119259953D01*
X134608020Y-119259953D02*
X134512782Y-119355192D01*
X134512782Y-119355192D02*
X134369925Y-119402811D01*
X134369925Y-119402811D02*
X134274687Y-119402811D01*
X134274687Y-119402811D02*
X134131830Y-119355192D01*
X134131830Y-119355192D02*
X134084211Y-119307572D01*
X134084211Y-119307572D02*
X134084211Y-118974239D01*
X134084211Y-118974239D02*
X134274687Y-118974239D01*
X133655639Y-119402811D02*
X133655639Y-118402811D01*
X133655639Y-118402811D02*
X133274687Y-118402811D01*
X133274687Y-118402811D02*
X133179449Y-118450430D01*
X133179449Y-118450430D02*
X133131830Y-118498049D01*
X133131830Y-118498049D02*
X133084211Y-118593287D01*
X133084211Y-118593287D02*
X133084211Y-118736144D01*
X133084211Y-118736144D02*
X133131830Y-118831382D01*
X133131830Y-118831382D02*
X133179449Y-118879001D01*
X133179449Y-118879001D02*
X133274687Y-118926620D01*
X133274687Y-118926620D02*
X133655639Y-118926620D01*
X132703258Y-119355192D02*
X132560401Y-119402811D01*
X132560401Y-119402811D02*
X132322306Y-119402811D01*
X132322306Y-119402811D02*
X132227068Y-119355192D01*
X132227068Y-119355192D02*
X132179449Y-119307572D01*
X132179449Y-119307572D02*
X132131830Y-119212334D01*
X132131830Y-119212334D02*
X132131830Y-119117096D01*
X132131830Y-119117096D02*
X132179449Y-119021858D01*
X132179449Y-119021858D02*
X132227068Y-118974239D01*
X132227068Y-118974239D02*
X132322306Y-118926620D01*
X132322306Y-118926620D02*
X132512782Y-118879001D01*
X132512782Y-118879001D02*
X132608020Y-118831382D01*
X132608020Y-118831382D02*
X132655639Y-118783763D01*
X132655639Y-118783763D02*
X132703258Y-118688525D01*
X132703258Y-118688525D02*
X132703258Y-118593287D01*
X132703258Y-118593287D02*
X132655639Y-118498049D01*
X132655639Y-118498049D02*
X132608020Y-118450430D01*
X132608020Y-118450430D02*
X132512782Y-118402811D01*
X132512782Y-118402811D02*
X132274687Y-118402811D01*
X132274687Y-118402811D02*
X132131830Y-118450430D01*
X130369925Y-119402811D02*
X130703258Y-118926620D01*
X130941353Y-119402811D02*
X130941353Y-118402811D01*
X130941353Y-118402811D02*
X130560401Y-118402811D01*
X130560401Y-118402811D02*
X130465163Y-118450430D01*
X130465163Y-118450430D02*
X130417544Y-118498049D01*
X130417544Y-118498049D02*
X130369925Y-118593287D01*
X130369925Y-118593287D02*
X130369925Y-118736144D01*
X130369925Y-118736144D02*
X130417544Y-118831382D01*
X130417544Y-118831382D02*
X130465163Y-118879001D01*
X130465163Y-118879001D02*
X130560401Y-118926620D01*
X130560401Y-118926620D02*
X130941353Y-118926620D01*
X129608020Y-118879001D02*
X129941353Y-118879001D01*
X129941353Y-119402811D02*
X129941353Y-118402811D01*
X129941353Y-118402811D02*
X129465163Y-118402811D01*
X136893734Y-120107993D02*
X136846115Y-120060374D01*
X136846115Y-120060374D02*
X136750877Y-120012755D01*
X136750877Y-120012755D02*
X136512782Y-120012755D01*
X136512782Y-120012755D02*
X136417544Y-120060374D01*
X136417544Y-120060374D02*
X136369925Y-120107993D01*
X136369925Y-120107993D02*
X136322306Y-120203231D01*
X136322306Y-120203231D02*
X136322306Y-120298469D01*
X136322306Y-120298469D02*
X136369925Y-120441326D01*
X136369925Y-120441326D02*
X136941353Y-121012755D01*
X136941353Y-121012755D02*
X136322306Y-121012755D01*
X135893734Y-120631802D02*
X135131830Y-120631802D01*
X134750877Y-120012755D02*
X134131830Y-120012755D01*
X134131830Y-120012755D02*
X134465163Y-120393707D01*
X134465163Y-120393707D02*
X134322306Y-120393707D01*
X134322306Y-120393707D02*
X134227068Y-120441326D01*
X134227068Y-120441326D02*
X134179449Y-120488945D01*
X134179449Y-120488945D02*
X134131830Y-120584183D01*
X134131830Y-120584183D02*
X134131830Y-120822278D01*
X134131830Y-120822278D02*
X134179449Y-120917516D01*
X134179449Y-120917516D02*
X134227068Y-120965136D01*
X134227068Y-120965136D02*
X134322306Y-121012755D01*
X134322306Y-121012755D02*
X134608020Y-121012755D01*
X134608020Y-121012755D02*
X134703258Y-120965136D01*
X134703258Y-120965136D02*
X134750877Y-120917516D01*
X133846115Y-120012755D02*
X133512782Y-121012755D01*
X133512782Y-121012755D02*
X133179449Y-120012755D01*
X132941353Y-120012755D02*
X132322306Y-120012755D01*
X132322306Y-120012755D02*
X132655639Y-120393707D01*
X132655639Y-120393707D02*
X132512782Y-120393707D01*
X132512782Y-120393707D02*
X132417544Y-120441326D01*
X132417544Y-120441326D02*
X132369925Y-120488945D01*
X132369925Y-120488945D02*
X132322306Y-120584183D01*
X132322306Y-120584183D02*
X132322306Y-120822278D01*
X132322306Y-120822278D02*
X132369925Y-120917516D01*
X132369925Y-120917516D02*
X132417544Y-120965136D01*
X132417544Y-120965136D02*
X132512782Y-121012755D01*
X132512782Y-121012755D02*
X132798496Y-121012755D01*
X132798496Y-121012755D02*
X132893734Y-120965136D01*
X132893734Y-120965136D02*
X132941353Y-120917516D01*
X136941353Y-121622699D02*
X136322306Y-121622699D01*
X136322306Y-121622699D02*
X136655639Y-122003651D01*
X136655639Y-122003651D02*
X136512782Y-122003651D01*
X136512782Y-122003651D02*
X136417544Y-122051270D01*
X136417544Y-122051270D02*
X136369925Y-122098889D01*
X136369925Y-122098889D02*
X136322306Y-122194127D01*
X136322306Y-122194127D02*
X136322306Y-122432222D01*
X136322306Y-122432222D02*
X136369925Y-122527460D01*
X136369925Y-122527460D02*
X136417544Y-122575080D01*
X136417544Y-122575080D02*
X136512782Y-122622699D01*
X136512782Y-122622699D02*
X136798496Y-122622699D01*
X136798496Y-122622699D02*
X136893734Y-122575080D01*
X136893734Y-122575080D02*
X136941353Y-122527460D01*
X135893734Y-122241746D02*
X135131830Y-122241746D01*
X134131830Y-121670318D02*
X134227068Y-121622699D01*
X134227068Y-121622699D02*
X134369925Y-121622699D01*
X134369925Y-121622699D02*
X134512782Y-121670318D01*
X134512782Y-121670318D02*
X134608020Y-121765556D01*
X134608020Y-121765556D02*
X134655639Y-121860794D01*
X134655639Y-121860794D02*
X134703258Y-122051270D01*
X134703258Y-122051270D02*
X134703258Y-122194127D01*
X134703258Y-122194127D02*
X134655639Y-122384603D01*
X134655639Y-122384603D02*
X134608020Y-122479841D01*
X134608020Y-122479841D02*
X134512782Y-122575080D01*
X134512782Y-122575080D02*
X134369925Y-122622699D01*
X134369925Y-122622699D02*
X134274687Y-122622699D01*
X134274687Y-122622699D02*
X134131830Y-122575080D01*
X134131830Y-122575080D02*
X134084211Y-122527460D01*
X134084211Y-122527460D02*
X134084211Y-122194127D01*
X134084211Y-122194127D02*
X134274687Y-122194127D01*
X133655639Y-122622699D02*
X133655639Y-121622699D01*
X133655639Y-121622699D02*
X133274687Y-121622699D01*
X133274687Y-121622699D02*
X133179449Y-121670318D01*
X133179449Y-121670318D02*
X133131830Y-121717937D01*
X133131830Y-121717937D02*
X133084211Y-121813175D01*
X133084211Y-121813175D02*
X133084211Y-121956032D01*
X133084211Y-121956032D02*
X133131830Y-122051270D01*
X133131830Y-122051270D02*
X133179449Y-122098889D01*
X133179449Y-122098889D02*
X133274687Y-122146508D01*
X133274687Y-122146508D02*
X133655639Y-122146508D01*
X132703258Y-122575080D02*
X132560401Y-122622699D01*
X132560401Y-122622699D02*
X132322306Y-122622699D01*
X132322306Y-122622699D02*
X132227068Y-122575080D01*
X132227068Y-122575080D02*
X132179449Y-122527460D01*
X132179449Y-122527460D02*
X132131830Y-122432222D01*
X132131830Y-122432222D02*
X132131830Y-122336984D01*
X132131830Y-122336984D02*
X132179449Y-122241746D01*
X132179449Y-122241746D02*
X132227068Y-122194127D01*
X132227068Y-122194127D02*
X132322306Y-122146508D01*
X132322306Y-122146508D02*
X132512782Y-122098889D01*
X132512782Y-122098889D02*
X132608020Y-122051270D01*
X132608020Y-122051270D02*
X132655639Y-122003651D01*
X132655639Y-122003651D02*
X132703258Y-121908413D01*
X132703258Y-121908413D02*
X132703258Y-121813175D01*
X132703258Y-121813175D02*
X132655639Y-121717937D01*
X132655639Y-121717937D02*
X132608020Y-121670318D01*
X132608020Y-121670318D02*
X132512782Y-121622699D01*
X132512782Y-121622699D02*
X132274687Y-121622699D01*
X132274687Y-121622699D02*
X132131830Y-121670318D01*
X131084210Y-121622699D02*
X130750877Y-122622699D01*
X130750877Y-122622699D02*
X130417544Y-121622699D01*
X129512782Y-122527460D02*
X129560401Y-122575080D01*
X129560401Y-122575080D02*
X129703258Y-122622699D01*
X129703258Y-122622699D02*
X129798496Y-122622699D01*
X129798496Y-122622699D02*
X129941353Y-122575080D01*
X129941353Y-122575080D02*
X130036591Y-122479841D01*
X130036591Y-122479841D02*
X130084210Y-122384603D01*
X130084210Y-122384603D02*
X130131829Y-122194127D01*
X130131829Y-122194127D02*
X130131829Y-122051270D01*
X130131829Y-122051270D02*
X130084210Y-121860794D01*
X130084210Y-121860794D02*
X130036591Y-121765556D01*
X130036591Y-121765556D02*
X129941353Y-121670318D01*
X129941353Y-121670318D02*
X129798496Y-121622699D01*
X129798496Y-121622699D02*
X129703258Y-121622699D01*
X129703258Y-121622699D02*
X129560401Y-121670318D01*
X129560401Y-121670318D02*
X129512782Y-121717937D01*
X128512782Y-122527460D02*
X128560401Y-122575080D01*
X128560401Y-122575080D02*
X128703258Y-122622699D01*
X128703258Y-122622699D02*
X128798496Y-122622699D01*
X128798496Y-122622699D02*
X128941353Y-122575080D01*
X128941353Y-122575080D02*
X129036591Y-122479841D01*
X129036591Y-122479841D02*
X129084210Y-122384603D01*
X129084210Y-122384603D02*
X129131829Y-122194127D01*
X129131829Y-122194127D02*
X129131829Y-122051270D01*
X129131829Y-122051270D02*
X129084210Y-121860794D01*
X129084210Y-121860794D02*
X129036591Y-121765556D01*
X129036591Y-121765556D02*
X128941353Y-121670318D01*
X128941353Y-121670318D02*
X128798496Y-121622699D01*
X128798496Y-121622699D02*
X128703258Y-121622699D01*
X128703258Y-121622699D02*
X128560401Y-121670318D01*
X128560401Y-121670318D02*
X128512782Y-121717937D01*
X128084210Y-122241746D02*
X127322306Y-122241746D01*
X126274687Y-122622699D02*
X126608020Y-122146508D01*
X126846115Y-122622699D02*
X126846115Y-121622699D01*
X126846115Y-121622699D02*
X126465163Y-121622699D01*
X126465163Y-121622699D02*
X126369925Y-121670318D01*
X126369925Y-121670318D02*
X126322306Y-121717937D01*
X126322306Y-121717937D02*
X126274687Y-121813175D01*
X126274687Y-121813175D02*
X126274687Y-121956032D01*
X126274687Y-121956032D02*
X126322306Y-122051270D01*
X126322306Y-122051270D02*
X126369925Y-122098889D01*
X126369925Y-122098889D02*
X126465163Y-122146508D01*
X126465163Y-122146508D02*
X126846115Y-122146508D01*
X125512782Y-122098889D02*
X125846115Y-122098889D01*
X125846115Y-122622699D02*
X125846115Y-121622699D01*
X125846115Y-121622699D02*
X125369925Y-121622699D01*
X136417544Y-123565976D02*
X136417544Y-124232643D01*
X136655639Y-123185024D02*
X136893734Y-123899309D01*
X136893734Y-123899309D02*
X136274687Y-123899309D01*
X135893734Y-123851690D02*
X135131830Y-123851690D01*
X134179449Y-124232643D02*
X134655639Y-124232643D01*
X134655639Y-124232643D02*
X134655639Y-123232643D01*
X133846115Y-124232643D02*
X133846115Y-123232643D01*
X133417544Y-124185024D02*
X133274687Y-124232643D01*
X133274687Y-124232643D02*
X133036592Y-124232643D01*
X133036592Y-124232643D02*
X132941354Y-124185024D01*
X132941354Y-124185024D02*
X132893735Y-124137404D01*
X132893735Y-124137404D02*
X132846116Y-124042166D01*
X132846116Y-124042166D02*
X132846116Y-123946928D01*
X132846116Y-123946928D02*
X132893735Y-123851690D01*
X132893735Y-123851690D02*
X132941354Y-123804071D01*
X132941354Y-123804071D02*
X133036592Y-123756452D01*
X133036592Y-123756452D02*
X133227068Y-123708833D01*
X133227068Y-123708833D02*
X133322306Y-123661214D01*
X133322306Y-123661214D02*
X133369925Y-123613595D01*
X133369925Y-123613595D02*
X133417544Y-123518357D01*
X133417544Y-123518357D02*
X133417544Y-123423119D01*
X133417544Y-123423119D02*
X133369925Y-123327881D01*
X133369925Y-123327881D02*
X133322306Y-123280262D01*
X133322306Y-123280262D02*
X133227068Y-123232643D01*
X133227068Y-123232643D02*
X132988973Y-123232643D01*
X132988973Y-123232643D02*
X132846116Y-123280262D01*
X131655639Y-124232643D02*
X131655639Y-123232643D01*
X131655639Y-123232643D02*
X131322306Y-123946928D01*
X131322306Y-123946928D02*
X130988973Y-123232643D01*
X130988973Y-123232643D02*
X130988973Y-124232643D01*
X130512782Y-124232643D02*
X130512782Y-123232643D01*
X130084211Y-124185024D02*
X129941354Y-124232643D01*
X129941354Y-124232643D02*
X129703259Y-124232643D01*
X129703259Y-124232643D02*
X129608021Y-124185024D01*
X129608021Y-124185024D02*
X129560402Y-124137404D01*
X129560402Y-124137404D02*
X129512783Y-124042166D01*
X129512783Y-124042166D02*
X129512783Y-123946928D01*
X129512783Y-123946928D02*
X129560402Y-123851690D01*
X129560402Y-123851690D02*
X129608021Y-123804071D01*
X129608021Y-123804071D02*
X129703259Y-123756452D01*
X129703259Y-123756452D02*
X129893735Y-123708833D01*
X129893735Y-123708833D02*
X129988973Y-123661214D01*
X129988973Y-123661214D02*
X130036592Y-123613595D01*
X130036592Y-123613595D02*
X130084211Y-123518357D01*
X130084211Y-123518357D02*
X130084211Y-123423119D01*
X130084211Y-123423119D02*
X130036592Y-123327881D01*
X130036592Y-123327881D02*
X129988973Y-123280262D01*
X129988973Y-123280262D02*
X129893735Y-123232643D01*
X129893735Y-123232643D02*
X129655640Y-123232643D01*
X129655640Y-123232643D02*
X129512783Y-123280262D01*
X128893735Y-123232643D02*
X128703259Y-123232643D01*
X128703259Y-123232643D02*
X128608021Y-123280262D01*
X128608021Y-123280262D02*
X128512783Y-123375500D01*
X128512783Y-123375500D02*
X128465164Y-123565976D01*
X128465164Y-123565976D02*
X128465164Y-123899309D01*
X128465164Y-123899309D02*
X128512783Y-124089785D01*
X128512783Y-124089785D02*
X128608021Y-124185024D01*
X128608021Y-124185024D02*
X128703259Y-124232643D01*
X128703259Y-124232643D02*
X128893735Y-124232643D01*
X128893735Y-124232643D02*
X128988973Y-124185024D01*
X128988973Y-124185024D02*
X129084211Y-124089785D01*
X129084211Y-124089785D02*
X129131830Y-123899309D01*
X129131830Y-123899309D02*
X129131830Y-123565976D01*
X129131830Y-123565976D02*
X129084211Y-123375500D01*
X129084211Y-123375500D02*
X128988973Y-123280262D01*
X128988973Y-123280262D02*
X128893735Y-123232643D01*
X136369925Y-124842587D02*
X136846115Y-124842587D01*
X136846115Y-124842587D02*
X136893734Y-125318777D01*
X136893734Y-125318777D02*
X136846115Y-125271158D01*
X136846115Y-125271158D02*
X136750877Y-125223539D01*
X136750877Y-125223539D02*
X136512782Y-125223539D01*
X136512782Y-125223539D02*
X136417544Y-125271158D01*
X136417544Y-125271158D02*
X136369925Y-125318777D01*
X136369925Y-125318777D02*
X136322306Y-125414015D01*
X136322306Y-125414015D02*
X136322306Y-125652110D01*
X136322306Y-125652110D02*
X136369925Y-125747348D01*
X136369925Y-125747348D02*
X136417544Y-125794968D01*
X136417544Y-125794968D02*
X136512782Y-125842587D01*
X136512782Y-125842587D02*
X136750877Y-125842587D01*
X136750877Y-125842587D02*
X136846115Y-125794968D01*
X136846115Y-125794968D02*
X136893734Y-125747348D01*
X135893734Y-125461634D02*
X135131830Y-125461634D01*
X134179449Y-125842587D02*
X134655639Y-125842587D01*
X134655639Y-125842587D02*
X134655639Y-124842587D01*
X133846115Y-125842587D02*
X133846115Y-124842587D01*
X133417544Y-125794968D02*
X133274687Y-125842587D01*
X133274687Y-125842587D02*
X133036592Y-125842587D01*
X133036592Y-125842587D02*
X132941354Y-125794968D01*
X132941354Y-125794968D02*
X132893735Y-125747348D01*
X132893735Y-125747348D02*
X132846116Y-125652110D01*
X132846116Y-125652110D02*
X132846116Y-125556872D01*
X132846116Y-125556872D02*
X132893735Y-125461634D01*
X132893735Y-125461634D02*
X132941354Y-125414015D01*
X132941354Y-125414015D02*
X133036592Y-125366396D01*
X133036592Y-125366396D02*
X133227068Y-125318777D01*
X133227068Y-125318777D02*
X133322306Y-125271158D01*
X133322306Y-125271158D02*
X133369925Y-125223539D01*
X133369925Y-125223539D02*
X133417544Y-125128301D01*
X133417544Y-125128301D02*
X133417544Y-125033063D01*
X133417544Y-125033063D02*
X133369925Y-124937825D01*
X133369925Y-124937825D02*
X133322306Y-124890206D01*
X133322306Y-124890206D02*
X133227068Y-124842587D01*
X133227068Y-124842587D02*
X132988973Y-124842587D01*
X132988973Y-124842587D02*
X132846116Y-124890206D01*
X131655639Y-125842587D02*
X131655639Y-124842587D01*
X131655639Y-124842587D02*
X131322306Y-125556872D01*
X131322306Y-125556872D02*
X130988973Y-124842587D01*
X130988973Y-124842587D02*
X130988973Y-125842587D01*
X130322306Y-124842587D02*
X130131830Y-124842587D01*
X130131830Y-124842587D02*
X130036592Y-124890206D01*
X130036592Y-124890206D02*
X129941354Y-124985444D01*
X129941354Y-124985444D02*
X129893735Y-125175920D01*
X129893735Y-125175920D02*
X129893735Y-125509253D01*
X129893735Y-125509253D02*
X129941354Y-125699729D01*
X129941354Y-125699729D02*
X130036592Y-125794968D01*
X130036592Y-125794968D02*
X130131830Y-125842587D01*
X130131830Y-125842587D02*
X130322306Y-125842587D01*
X130322306Y-125842587D02*
X130417544Y-125794968D01*
X130417544Y-125794968D02*
X130512782Y-125699729D01*
X130512782Y-125699729D02*
X130560401Y-125509253D01*
X130560401Y-125509253D02*
X130560401Y-125175920D01*
X130560401Y-125175920D02*
X130512782Y-124985444D01*
X130512782Y-124985444D02*
X130417544Y-124890206D01*
X130417544Y-124890206D02*
X130322306Y-124842587D01*
X129512782Y-125794968D02*
X129369925Y-125842587D01*
X129369925Y-125842587D02*
X129131830Y-125842587D01*
X129131830Y-125842587D02*
X129036592Y-125794968D01*
X129036592Y-125794968D02*
X128988973Y-125747348D01*
X128988973Y-125747348D02*
X128941354Y-125652110D01*
X128941354Y-125652110D02*
X128941354Y-125556872D01*
X128941354Y-125556872D02*
X128988973Y-125461634D01*
X128988973Y-125461634D02*
X129036592Y-125414015D01*
X129036592Y-125414015D02*
X129131830Y-125366396D01*
X129131830Y-125366396D02*
X129322306Y-125318777D01*
X129322306Y-125318777D02*
X129417544Y-125271158D01*
X129417544Y-125271158D02*
X129465163Y-125223539D01*
X129465163Y-125223539D02*
X129512782Y-125128301D01*
X129512782Y-125128301D02*
X129512782Y-125033063D01*
X129512782Y-125033063D02*
X129465163Y-124937825D01*
X129465163Y-124937825D02*
X129417544Y-124890206D01*
X129417544Y-124890206D02*
X129322306Y-124842587D01*
X129322306Y-124842587D02*
X129084211Y-124842587D01*
X129084211Y-124842587D02*
X128941354Y-124890206D01*
X128512782Y-125842587D02*
X128512782Y-124842587D01*
X136417544Y-126452531D02*
X136608020Y-126452531D01*
X136608020Y-126452531D02*
X136703258Y-126500150D01*
X136703258Y-126500150D02*
X136750877Y-126547769D01*
X136750877Y-126547769D02*
X136846115Y-126690626D01*
X136846115Y-126690626D02*
X136893734Y-126881102D01*
X136893734Y-126881102D02*
X136893734Y-127262054D01*
X136893734Y-127262054D02*
X136846115Y-127357292D01*
X136846115Y-127357292D02*
X136798496Y-127404912D01*
X136798496Y-127404912D02*
X136703258Y-127452531D01*
X136703258Y-127452531D02*
X136512782Y-127452531D01*
X136512782Y-127452531D02*
X136417544Y-127404912D01*
X136417544Y-127404912D02*
X136369925Y-127357292D01*
X136369925Y-127357292D02*
X136322306Y-127262054D01*
X136322306Y-127262054D02*
X136322306Y-127023959D01*
X136322306Y-127023959D02*
X136369925Y-126928721D01*
X136369925Y-126928721D02*
X136417544Y-126881102D01*
X136417544Y-126881102D02*
X136512782Y-126833483D01*
X136512782Y-126833483D02*
X136703258Y-126833483D01*
X136703258Y-126833483D02*
X136798496Y-126881102D01*
X136798496Y-126881102D02*
X136846115Y-126928721D01*
X136846115Y-126928721D02*
X136893734Y-127023959D01*
X135893734Y-127071578D02*
X135131830Y-127071578D01*
X134655639Y-127452531D02*
X134655639Y-126452531D01*
X134227068Y-127404912D02*
X134084211Y-127452531D01*
X134084211Y-127452531D02*
X133846116Y-127452531D01*
X133846116Y-127452531D02*
X133750878Y-127404912D01*
X133750878Y-127404912D02*
X133703259Y-127357292D01*
X133703259Y-127357292D02*
X133655640Y-127262054D01*
X133655640Y-127262054D02*
X133655640Y-127166816D01*
X133655640Y-127166816D02*
X133703259Y-127071578D01*
X133703259Y-127071578D02*
X133750878Y-127023959D01*
X133750878Y-127023959D02*
X133846116Y-126976340D01*
X133846116Y-126976340D02*
X134036592Y-126928721D01*
X134036592Y-126928721D02*
X134131830Y-126881102D01*
X134131830Y-126881102D02*
X134179449Y-126833483D01*
X134179449Y-126833483D02*
X134227068Y-126738245D01*
X134227068Y-126738245D02*
X134227068Y-126643007D01*
X134227068Y-126643007D02*
X134179449Y-126547769D01*
X134179449Y-126547769D02*
X134131830Y-126500150D01*
X134131830Y-126500150D02*
X134036592Y-126452531D01*
X134036592Y-126452531D02*
X133798497Y-126452531D01*
X133798497Y-126452531D02*
X133655640Y-126500150D01*
X133227068Y-127452531D02*
X133227068Y-126452531D01*
X133227068Y-126452531D02*
X132893735Y-127166816D01*
X132893735Y-127166816D02*
X132560402Y-126452531D01*
X132560402Y-126452531D02*
X132560402Y-127452531D01*
X131322306Y-127452531D02*
X131322306Y-126452531D01*
X131322306Y-126452531D02*
X130988973Y-127166816D01*
X130988973Y-127166816D02*
X130655640Y-126452531D01*
X130655640Y-126452531D02*
X130655640Y-127452531D01*
X129988973Y-126452531D02*
X129798497Y-126452531D01*
X129798497Y-126452531D02*
X129703259Y-126500150D01*
X129703259Y-126500150D02*
X129608021Y-126595388D01*
X129608021Y-126595388D02*
X129560402Y-126785864D01*
X129560402Y-126785864D02*
X129560402Y-127119197D01*
X129560402Y-127119197D02*
X129608021Y-127309673D01*
X129608021Y-127309673D02*
X129703259Y-127404912D01*
X129703259Y-127404912D02*
X129798497Y-127452531D01*
X129798497Y-127452531D02*
X129988973Y-127452531D01*
X129988973Y-127452531D02*
X130084211Y-127404912D01*
X130084211Y-127404912D02*
X130179449Y-127309673D01*
X130179449Y-127309673D02*
X130227068Y-127119197D01*
X130227068Y-127119197D02*
X130227068Y-126785864D01*
X130227068Y-126785864D02*
X130179449Y-126595388D01*
X130179449Y-126595388D02*
X130084211Y-126500150D01*
X130084211Y-126500150D02*
X129988973Y-126452531D01*
X129179449Y-127404912D02*
X129036592Y-127452531D01*
X129036592Y-127452531D02*
X128798497Y-127452531D01*
X128798497Y-127452531D02*
X128703259Y-127404912D01*
X128703259Y-127404912D02*
X128655640Y-127357292D01*
X128655640Y-127357292D02*
X128608021Y-127262054D01*
X128608021Y-127262054D02*
X128608021Y-127166816D01*
X128608021Y-127166816D02*
X128655640Y-127071578D01*
X128655640Y-127071578D02*
X128703259Y-127023959D01*
X128703259Y-127023959D02*
X128798497Y-126976340D01*
X128798497Y-126976340D02*
X128988973Y-126928721D01*
X128988973Y-126928721D02*
X129084211Y-126881102D01*
X129084211Y-126881102D02*
X129131830Y-126833483D01*
X129131830Y-126833483D02*
X129179449Y-126738245D01*
X129179449Y-126738245D02*
X129179449Y-126643007D01*
X129179449Y-126643007D02*
X129131830Y-126547769D01*
X129131830Y-126547769D02*
X129084211Y-126500150D01*
X129084211Y-126500150D02*
X128988973Y-126452531D01*
X128988973Y-126452531D02*
X128750878Y-126452531D01*
X128750878Y-126452531D02*
X128608021Y-126500150D01*
X128179449Y-127452531D02*
X128179449Y-126452531D01*
X136941353Y-128062475D02*
X136274687Y-128062475D01*
X136274687Y-128062475D02*
X136703258Y-129062475D01*
X135893734Y-128681522D02*
X135131830Y-128681522D01*
X134655639Y-129062475D02*
X134655639Y-128062475D01*
X134227068Y-129014856D02*
X134084211Y-129062475D01*
X134084211Y-129062475D02*
X133846116Y-129062475D01*
X133846116Y-129062475D02*
X133750878Y-129014856D01*
X133750878Y-129014856D02*
X133703259Y-128967236D01*
X133703259Y-128967236D02*
X133655640Y-128871998D01*
X133655640Y-128871998D02*
X133655640Y-128776760D01*
X133655640Y-128776760D02*
X133703259Y-128681522D01*
X133703259Y-128681522D02*
X133750878Y-128633903D01*
X133750878Y-128633903D02*
X133846116Y-128586284D01*
X133846116Y-128586284D02*
X134036592Y-128538665D01*
X134036592Y-128538665D02*
X134131830Y-128491046D01*
X134131830Y-128491046D02*
X134179449Y-128443427D01*
X134179449Y-128443427D02*
X134227068Y-128348189D01*
X134227068Y-128348189D02*
X134227068Y-128252951D01*
X134227068Y-128252951D02*
X134179449Y-128157713D01*
X134179449Y-128157713D02*
X134131830Y-128110094D01*
X134131830Y-128110094D02*
X134036592Y-128062475D01*
X134036592Y-128062475D02*
X133798497Y-128062475D01*
X133798497Y-128062475D02*
X133655640Y-128110094D01*
X133227068Y-129062475D02*
X133227068Y-128062475D01*
X133227068Y-128062475D02*
X132893735Y-128776760D01*
X132893735Y-128776760D02*
X132560402Y-128062475D01*
X132560402Y-128062475D02*
X132560402Y-129062475D01*
X131322306Y-129062475D02*
X131322306Y-128062475D01*
X131322306Y-128062475D02*
X130988973Y-128776760D01*
X130988973Y-128776760D02*
X130655640Y-128062475D01*
X130655640Y-128062475D02*
X130655640Y-129062475D01*
X130179449Y-129062475D02*
X130179449Y-128062475D01*
X129750878Y-129014856D02*
X129608021Y-129062475D01*
X129608021Y-129062475D02*
X129369926Y-129062475D01*
X129369926Y-129062475D02*
X129274688Y-129014856D01*
X129274688Y-129014856D02*
X129227069Y-128967236D01*
X129227069Y-128967236D02*
X129179450Y-128871998D01*
X129179450Y-128871998D02*
X129179450Y-128776760D01*
X129179450Y-128776760D02*
X129227069Y-128681522D01*
X129227069Y-128681522D02*
X129274688Y-128633903D01*
X129274688Y-128633903D02*
X129369926Y-128586284D01*
X129369926Y-128586284D02*
X129560402Y-128538665D01*
X129560402Y-128538665D02*
X129655640Y-128491046D01*
X129655640Y-128491046D02*
X129703259Y-128443427D01*
X129703259Y-128443427D02*
X129750878Y-128348189D01*
X129750878Y-128348189D02*
X129750878Y-128252951D01*
X129750878Y-128252951D02*
X129703259Y-128157713D01*
X129703259Y-128157713D02*
X129655640Y-128110094D01*
X129655640Y-128110094D02*
X129560402Y-128062475D01*
X129560402Y-128062475D02*
X129322307Y-128062475D01*
X129322307Y-128062475D02*
X129179450Y-128110094D01*
X128560402Y-128062475D02*
X128369926Y-128062475D01*
X128369926Y-128062475D02*
X128274688Y-128110094D01*
X128274688Y-128110094D02*
X128179450Y-128205332D01*
X128179450Y-128205332D02*
X128131831Y-128395808D01*
X128131831Y-128395808D02*
X128131831Y-128729141D01*
X128131831Y-128729141D02*
X128179450Y-128919617D01*
X128179450Y-128919617D02*
X128274688Y-129014856D01*
X128274688Y-129014856D02*
X128369926Y-129062475D01*
X128369926Y-129062475D02*
X128560402Y-129062475D01*
X128560402Y-129062475D02*
X128655640Y-129014856D01*
X128655640Y-129014856D02*
X128750878Y-128919617D01*
X128750878Y-128919617D02*
X128798497Y-128729141D01*
X128798497Y-128729141D02*
X128798497Y-128395808D01*
X128798497Y-128395808D02*
X128750878Y-128205332D01*
X128750878Y-128205332D02*
X128655640Y-128110094D01*
X128655640Y-128110094D02*
X128560402Y-128062475D01*
X136703258Y-130100990D02*
X136798496Y-130053371D01*
X136798496Y-130053371D02*
X136846115Y-130005752D01*
X136846115Y-130005752D02*
X136893734Y-129910514D01*
X136893734Y-129910514D02*
X136893734Y-129862895D01*
X136893734Y-129862895D02*
X136846115Y-129767657D01*
X136846115Y-129767657D02*
X136798496Y-129720038D01*
X136798496Y-129720038D02*
X136703258Y-129672419D01*
X136703258Y-129672419D02*
X136512782Y-129672419D01*
X136512782Y-129672419D02*
X136417544Y-129720038D01*
X136417544Y-129720038D02*
X136369925Y-129767657D01*
X136369925Y-129767657D02*
X136322306Y-129862895D01*
X136322306Y-129862895D02*
X136322306Y-129910514D01*
X136322306Y-129910514D02*
X136369925Y-130005752D01*
X136369925Y-130005752D02*
X136417544Y-130053371D01*
X136417544Y-130053371D02*
X136512782Y-130100990D01*
X136512782Y-130100990D02*
X136703258Y-130100990D01*
X136703258Y-130100990D02*
X136798496Y-130148609D01*
X136798496Y-130148609D02*
X136846115Y-130196228D01*
X136846115Y-130196228D02*
X136893734Y-130291466D01*
X136893734Y-130291466D02*
X136893734Y-130481942D01*
X136893734Y-130481942D02*
X136846115Y-130577180D01*
X136846115Y-130577180D02*
X136798496Y-130624800D01*
X136798496Y-130624800D02*
X136703258Y-130672419D01*
X136703258Y-130672419D02*
X136512782Y-130672419D01*
X136512782Y-130672419D02*
X136417544Y-130624800D01*
X136417544Y-130624800D02*
X136369925Y-130577180D01*
X136369925Y-130577180D02*
X136322306Y-130481942D01*
X136322306Y-130481942D02*
X136322306Y-130291466D01*
X136322306Y-130291466D02*
X136369925Y-130196228D01*
X136369925Y-130196228D02*
X136417544Y-130148609D01*
X136417544Y-130148609D02*
X136512782Y-130100990D01*
X135893734Y-130291466D02*
X135131830Y-130291466D01*
X134655639Y-130672419D02*
X134655639Y-129672419D01*
X134227068Y-130624800D02*
X134084211Y-130672419D01*
X134084211Y-130672419D02*
X133846116Y-130672419D01*
X133846116Y-130672419D02*
X133750878Y-130624800D01*
X133750878Y-130624800D02*
X133703259Y-130577180D01*
X133703259Y-130577180D02*
X133655640Y-130481942D01*
X133655640Y-130481942D02*
X133655640Y-130386704D01*
X133655640Y-130386704D02*
X133703259Y-130291466D01*
X133703259Y-130291466D02*
X133750878Y-130243847D01*
X133750878Y-130243847D02*
X133846116Y-130196228D01*
X133846116Y-130196228D02*
X134036592Y-130148609D01*
X134036592Y-130148609D02*
X134131830Y-130100990D01*
X134131830Y-130100990D02*
X134179449Y-130053371D01*
X134179449Y-130053371D02*
X134227068Y-129958133D01*
X134227068Y-129958133D02*
X134227068Y-129862895D01*
X134227068Y-129862895D02*
X134179449Y-129767657D01*
X134179449Y-129767657D02*
X134131830Y-129720038D01*
X134131830Y-129720038D02*
X134036592Y-129672419D01*
X134036592Y-129672419D02*
X133798497Y-129672419D01*
X133798497Y-129672419D02*
X133655640Y-129720038D01*
X133227068Y-130672419D02*
X133227068Y-129672419D01*
X133227068Y-129672419D02*
X132893735Y-130386704D01*
X132893735Y-130386704D02*
X132560402Y-129672419D01*
X132560402Y-129672419D02*
X132560402Y-130672419D01*
X131369925Y-130624800D02*
X131227068Y-130672419D01*
X131227068Y-130672419D02*
X130988973Y-130672419D01*
X130988973Y-130672419D02*
X130893735Y-130624800D01*
X130893735Y-130624800D02*
X130846116Y-130577180D01*
X130846116Y-130577180D02*
X130798497Y-130481942D01*
X130798497Y-130481942D02*
X130798497Y-130386704D01*
X130798497Y-130386704D02*
X130846116Y-130291466D01*
X130846116Y-130291466D02*
X130893735Y-130243847D01*
X130893735Y-130243847D02*
X130988973Y-130196228D01*
X130988973Y-130196228D02*
X131179449Y-130148609D01*
X131179449Y-130148609D02*
X131274687Y-130100990D01*
X131274687Y-130100990D02*
X131322306Y-130053371D01*
X131322306Y-130053371D02*
X131369925Y-129958133D01*
X131369925Y-129958133D02*
X131369925Y-129862895D01*
X131369925Y-129862895D02*
X131322306Y-129767657D01*
X131322306Y-129767657D02*
X131274687Y-129720038D01*
X131274687Y-129720038D02*
X131179449Y-129672419D01*
X131179449Y-129672419D02*
X130941354Y-129672419D01*
X130941354Y-129672419D02*
X130798497Y-129720038D01*
X129798497Y-130577180D02*
X129846116Y-130624800D01*
X129846116Y-130624800D02*
X129988973Y-130672419D01*
X129988973Y-130672419D02*
X130084211Y-130672419D01*
X130084211Y-130672419D02*
X130227068Y-130624800D01*
X130227068Y-130624800D02*
X130322306Y-130529561D01*
X130322306Y-130529561D02*
X130369925Y-130434323D01*
X130369925Y-130434323D02*
X130417544Y-130243847D01*
X130417544Y-130243847D02*
X130417544Y-130100990D01*
X130417544Y-130100990D02*
X130369925Y-129910514D01*
X130369925Y-129910514D02*
X130322306Y-129815276D01*
X130322306Y-129815276D02*
X130227068Y-129720038D01*
X130227068Y-129720038D02*
X130084211Y-129672419D01*
X130084211Y-129672419D02*
X129988973Y-129672419D01*
X129988973Y-129672419D02*
X129846116Y-129720038D01*
X129846116Y-129720038D02*
X129798497Y-129767657D01*
X129369925Y-130672419D02*
X129369925Y-129672419D01*
X128798497Y-130672419D02*
X129227068Y-130100990D01*
X128798497Y-129672419D02*
X129369925Y-130243847D01*
D11*
X116733333Y-67094819D02*
X116733333Y-67809104D01*
X116733333Y-67809104D02*
X116780952Y-67951961D01*
X116780952Y-67951961D02*
X116876190Y-68047200D01*
X116876190Y-68047200D02*
X117019047Y-68094819D01*
X117019047Y-68094819D02*
X117114285Y-68094819D01*
X115828571Y-67094819D02*
X116019047Y-67094819D01*
X116019047Y-67094819D02*
X116114285Y-67142438D01*
X116114285Y-67142438D02*
X116161904Y-67190057D01*
X116161904Y-67190057D02*
X116257142Y-67332914D01*
X116257142Y-67332914D02*
X116304761Y-67523390D01*
X116304761Y-67523390D02*
X116304761Y-67904342D01*
X116304761Y-67904342D02*
X116257142Y-67999580D01*
X116257142Y-67999580D02*
X116209523Y-68047200D01*
X116209523Y-68047200D02*
X116114285Y-68094819D01*
X116114285Y-68094819D02*
X115923809Y-68094819D01*
X115923809Y-68094819D02*
X115828571Y-68047200D01*
X115828571Y-68047200D02*
X115780952Y-67999580D01*
X115780952Y-67999580D02*
X115733333Y-67904342D01*
X115733333Y-67904342D02*
X115733333Y-67666247D01*
X115733333Y-67666247D02*
X115780952Y-67571009D01*
X115780952Y-67571009D02*
X115828571Y-67523390D01*
X115828571Y-67523390D02*
X115923809Y-67475771D01*
X115923809Y-67475771D02*
X116114285Y-67475771D01*
X116114285Y-67475771D02*
X116209523Y-67523390D01*
X116209523Y-67523390D02*
X116257142Y-67571009D01*
X116257142Y-67571009D02*
X116304761Y-67666247D01*
X146524819Y-156548416D02*
X147239104Y-156548416D01*
X147239104Y-156548416D02*
X147381961Y-156500797D01*
X147381961Y-156500797D02*
X147477200Y-156405559D01*
X147477200Y-156405559D02*
X147524819Y-156262702D01*
X147524819Y-156262702D02*
X147524819Y-156167464D01*
X146524819Y-156929369D02*
X146524819Y-157548416D01*
X146524819Y-157548416D02*
X146905771Y-157215083D01*
X146905771Y-157215083D02*
X146905771Y-157357940D01*
X146905771Y-157357940D02*
X146953390Y-157453178D01*
X146953390Y-157453178D02*
X147001009Y-157500797D01*
X147001009Y-157500797D02*
X147096247Y-157548416D01*
X147096247Y-157548416D02*
X147334342Y-157548416D01*
X147334342Y-157548416D02*
X147429580Y-157500797D01*
X147429580Y-157500797D02*
X147477200Y-157453178D01*
X147477200Y-157453178D02*
X147524819Y-157357940D01*
X147524819Y-157357940D02*
X147524819Y-157072226D01*
X147524819Y-157072226D02*
X147477200Y-156976988D01*
X147477200Y-156976988D02*
X147429580Y-156929369D01*
X158683333Y-84554819D02*
X158683333Y-85269104D01*
X158683333Y-85269104D02*
X158730952Y-85411961D01*
X158730952Y-85411961D02*
X158826190Y-85507200D01*
X158826190Y-85507200D02*
X158969047Y-85554819D01*
X158969047Y-85554819D02*
X159064285Y-85554819D01*
X158207142Y-85554819D02*
X158207142Y-84554819D01*
X158207142Y-84554819D02*
X157826190Y-84554819D01*
X157826190Y-84554819D02*
X157730952Y-84602438D01*
X157730952Y-84602438D02*
X157683333Y-84650057D01*
X157683333Y-84650057D02*
X157635714Y-84745295D01*
X157635714Y-84745295D02*
X157635714Y-84888152D01*
X157635714Y-84888152D02*
X157683333Y-84983390D01*
X157683333Y-84983390D02*
X157730952Y-85031009D01*
X157730952Y-85031009D02*
X157826190Y-85078628D01*
X157826190Y-85078628D02*
X158207142Y-85078628D01*
X157302380Y-84554819D02*
X156683333Y-84554819D01*
X156683333Y-84554819D02*
X157016666Y-84935771D01*
X157016666Y-84935771D02*
X156873809Y-84935771D01*
X156873809Y-84935771D02*
X156778571Y-84983390D01*
X156778571Y-84983390D02*
X156730952Y-85031009D01*
X156730952Y-85031009D02*
X156683333Y-85126247D01*
X156683333Y-85126247D02*
X156683333Y-85364342D01*
X156683333Y-85364342D02*
X156730952Y-85459580D01*
X156730952Y-85459580D02*
X156778571Y-85507200D01*
X156778571Y-85507200D02*
X156873809Y-85554819D01*
X156873809Y-85554819D02*
X157159523Y-85554819D01*
X157159523Y-85554819D02*
X157254761Y-85507200D01*
X157254761Y-85507200D02*
X157302380Y-85459580D01*
X130154819Y-98316666D02*
X130869104Y-98316666D01*
X130869104Y-98316666D02*
X131011961Y-98269047D01*
X131011961Y-98269047D02*
X131107200Y-98173809D01*
X131107200Y-98173809D02*
X131154819Y-98030952D01*
X131154819Y-98030952D02*
X131154819Y-97935714D01*
X131154819Y-98792857D02*
X130154819Y-98792857D01*
X130154819Y-98792857D02*
X130154819Y-99173809D01*
X130154819Y-99173809D02*
X130202438Y-99269047D01*
X130202438Y-99269047D02*
X130250057Y-99316666D01*
X130250057Y-99316666D02*
X130345295Y-99364285D01*
X130345295Y-99364285D02*
X130488152Y-99364285D01*
X130488152Y-99364285D02*
X130583390Y-99316666D01*
X130583390Y-99316666D02*
X130631009Y-99269047D01*
X130631009Y-99269047D02*
X130678628Y-99173809D01*
X130678628Y-99173809D02*
X130678628Y-98792857D01*
X130250057Y-99745238D02*
X130202438Y-99792857D01*
X130202438Y-99792857D02*
X130154819Y-99888095D01*
X130154819Y-99888095D02*
X130154819Y-100126190D01*
X130154819Y-100126190D02*
X130202438Y-100221428D01*
X130202438Y-100221428D02*
X130250057Y-100269047D01*
X130250057Y-100269047D02*
X130345295Y-100316666D01*
X130345295Y-100316666D02*
X130440533Y-100316666D01*
X130440533Y-100316666D02*
X130583390Y-100269047D01*
X130583390Y-100269047D02*
X131154819Y-99697619D01*
X131154819Y-99697619D02*
X131154819Y-100316666D01*
X127764819Y-155341666D02*
X128479104Y-155341666D01*
X128479104Y-155341666D02*
X128621961Y-155294047D01*
X128621961Y-155294047D02*
X128717200Y-155198809D01*
X128717200Y-155198809D02*
X128764819Y-155055952D01*
X128764819Y-155055952D02*
X128764819Y-154960714D01*
X127860057Y-155770238D02*
X127812438Y-155817857D01*
X127812438Y-155817857D02*
X127764819Y-155913095D01*
X127764819Y-155913095D02*
X127764819Y-156151190D01*
X127764819Y-156151190D02*
X127812438Y-156246428D01*
X127812438Y-156246428D02*
X127860057Y-156294047D01*
X127860057Y-156294047D02*
X127955295Y-156341666D01*
X127955295Y-156341666D02*
X128050533Y-156341666D01*
X128050533Y-156341666D02*
X128193390Y-156294047D01*
X128193390Y-156294047D02*
X128764819Y-155722619D01*
X128764819Y-155722619D02*
X128764819Y-156341666D01*
X146074819Y-106061905D02*
X145074819Y-106061905D01*
X145074819Y-106061905D02*
X145074819Y-106300000D01*
X145074819Y-106300000D02*
X145122438Y-106442857D01*
X145122438Y-106442857D02*
X145217676Y-106538095D01*
X145217676Y-106538095D02*
X145312914Y-106585714D01*
X145312914Y-106585714D02*
X145503390Y-106633333D01*
X145503390Y-106633333D02*
X145646247Y-106633333D01*
X145646247Y-106633333D02*
X145836723Y-106585714D01*
X145836723Y-106585714D02*
X145931961Y-106538095D01*
X145931961Y-106538095D02*
X146027200Y-106442857D01*
X146027200Y-106442857D02*
X146074819Y-106300000D01*
X146074819Y-106300000D02*
X146074819Y-106061905D01*
X145170057Y-107014286D02*
X145122438Y-107061905D01*
X145122438Y-107061905D02*
X145074819Y-107157143D01*
X145074819Y-107157143D02*
X145074819Y-107395238D01*
X145074819Y-107395238D02*
X145122438Y-107490476D01*
X145122438Y-107490476D02*
X145170057Y-107538095D01*
X145170057Y-107538095D02*
X145265295Y-107585714D01*
X145265295Y-107585714D02*
X145360533Y-107585714D01*
X145360533Y-107585714D02*
X145503390Y-107538095D01*
X145503390Y-107538095D02*
X146074819Y-106966667D01*
X146074819Y-106966667D02*
X146074819Y-107585714D01*
X144954819Y-114158095D02*
X143954819Y-114158095D01*
X144954819Y-114729523D02*
X144383390Y-114300952D01*
X143954819Y-114729523D02*
X144526247Y-114158095D01*
D12*
%TO.C,J6*%
X118830000Y-68720000D02*
X117450000Y-68720000D01*
X118830000Y-70100000D02*
X118830000Y-68720000D01*
X118830000Y-71370000D02*
X118830000Y-76560000D01*
X118830000Y-71370000D02*
X116070000Y-71370000D01*
X118830000Y-76560000D02*
X116070000Y-76560000D01*
X116070000Y-71370000D02*
X116070000Y-76560000D01*
D13*
%TO.C,U7*%
X147708180Y-59031233D02*
G75*
G02*
X147454180Y-59031233I-127000J0D01*
G01*
X147454180Y-59031233D02*
G75*
G02*
X147708180Y-59031233I127000J0D01*
G01*
D12*
%TO.C,J3*%
X148090000Y-133055000D02*
X148090000Y-178295000D01*
X148090000Y-133055000D02*
X158130000Y-133055000D01*
X148090000Y-178295000D02*
X158130000Y-178295000D01*
X151110000Y-133055000D02*
X151110000Y-178295000D01*
X151999000Y-141859000D02*
X152043000Y-141815000D01*
X151999000Y-146859000D02*
X152043000Y-146815000D01*
X151999000Y-151859000D02*
X152043000Y-151815000D01*
X151999000Y-156859000D02*
X152043000Y-156815000D01*
X151999000Y-161859000D02*
X152043000Y-161815000D01*
X151999000Y-166859000D02*
X152043000Y-166815000D01*
X151999000Y-171859000D02*
X152043000Y-171815000D01*
X151999000Y-176859000D02*
X152043000Y-176815000D01*
X152226000Y-142086000D02*
X152270000Y-142042000D01*
X152226000Y-147086000D02*
X152270000Y-147042000D01*
X152226000Y-152086000D02*
X152270000Y-152042000D01*
X152226000Y-157086000D02*
X152270000Y-157042000D01*
X152226000Y-162086000D02*
X152270000Y-162042000D01*
X152226000Y-167086000D02*
X152270000Y-167042000D01*
X152226000Y-172086000D02*
X152270000Y-172042000D01*
X152226000Y-177086000D02*
X152270000Y-177042000D01*
X154550000Y-139308000D02*
X154593000Y-139264000D01*
X154550000Y-144308000D02*
X154593000Y-144264000D01*
X154550000Y-149308000D02*
X154593000Y-149264000D01*
X154550000Y-154308000D02*
X154593000Y-154264000D01*
X154550000Y-159308000D02*
X154593000Y-159264000D01*
X154550000Y-164308000D02*
X154593000Y-164264000D01*
X154550000Y-169308000D02*
X154593000Y-169264000D01*
X154550000Y-174308000D02*
X154593000Y-174264000D01*
X154777000Y-139535000D02*
X154820000Y-139491000D01*
X154777000Y-144535000D02*
X154820000Y-144491000D01*
X154777000Y-149535000D02*
X154820000Y-149491000D01*
X154777000Y-154535000D02*
X154820000Y-154491000D01*
X154777000Y-159535000D02*
X154820000Y-159491000D01*
X154777000Y-164535000D02*
X154820000Y-164491000D01*
X154777000Y-169535000D02*
X154820000Y-169491000D01*
X154777000Y-174535000D02*
X154820000Y-174491000D01*
X156010000Y-133055000D02*
X156010000Y-178295000D01*
X157510000Y-133055000D02*
X157510000Y-178295000D01*
X158130000Y-133055000D02*
X158130000Y-135375000D01*
X158130000Y-135975000D02*
X158130000Y-178295000D01*
X151629794Y-136214321D02*
G75*
G02*
X151630000Y-135135000I1780206J539321D01*
G01*
X152870679Y-133894794D02*
G75*
G02*
X153950000Y-133895000I539321J-1780196D01*
G01*
X153949321Y-137455206D02*
G75*
G02*
X152870000Y-137455000I-539321J1780219D01*
G01*
X155190206Y-135135679D02*
G75*
G02*
X155190000Y-136215000I-1780219J-539321D01*
G01*
X155270000Y-140675000D02*
G75*
G02*
X151550000Y-140675000I-1860000J0D01*
G01*
X151550000Y-140675000D02*
G75*
G02*
X155270000Y-140675000I1860000J0D01*
G01*
X155270000Y-145675000D02*
G75*
G02*
X151550000Y-145675000I-1860000J0D01*
G01*
X151550000Y-145675000D02*
G75*
G02*
X155270000Y-145675000I1860000J0D01*
G01*
X155270000Y-150675000D02*
G75*
G02*
X151550000Y-150675000I-1860000J0D01*
G01*
X151550000Y-150675000D02*
G75*
G02*
X155270000Y-150675000I1860000J0D01*
G01*
X155270000Y-155675000D02*
G75*
G02*
X151550000Y-155675000I-1860000J0D01*
G01*
X151550000Y-155675000D02*
G75*
G02*
X155270000Y-155675000I1860000J0D01*
G01*
X155270000Y-160675000D02*
G75*
G02*
X151550000Y-160675000I-1860000J0D01*
G01*
X151550000Y-160675000D02*
G75*
G02*
X155270000Y-160675000I1860000J0D01*
G01*
X155270000Y-165675000D02*
G75*
G02*
X151550000Y-165675000I-1860000J0D01*
G01*
X151550000Y-165675000D02*
G75*
G02*
X155270000Y-165675000I1860000J0D01*
G01*
X155270000Y-170675000D02*
G75*
G02*
X151550000Y-170675000I-1860000J0D01*
G01*
X151550000Y-170675000D02*
G75*
G02*
X155270000Y-170675000I1860000J0D01*
G01*
X155270000Y-175675000D02*
G75*
G02*
X151550000Y-175675000I-1860000J0D01*
G01*
X151550000Y-175675000D02*
G75*
G02*
X155270000Y-175675000I1860000J0D01*
G01*
X158740000Y-136115000D02*
X158130000Y-135675000D01*
X158740000Y-135235000D01*
X158740000Y-136115000D01*
G36*
X158740000Y-136115000D02*
G01*
X158130000Y-135675000D01*
X158740000Y-135235000D01*
X158740000Y-136115000D01*
G37*
%TO.C,JP3*%
X156450000Y-83000000D02*
X156450000Y-83600000D01*
X157150000Y-84300000D02*
X158550000Y-84300000D01*
X158550000Y-82300000D02*
X157150000Y-82300000D01*
X159250000Y-83600000D02*
X159250000Y-83000000D01*
X156450000Y-83000000D02*
G75*
G02*
X157150000Y-82300000I699999J1D01*
G01*
X157150000Y-84300000D02*
G75*
G02*
X156450000Y-83600000I-1J699999D01*
G01*
X158550000Y-82300000D02*
G75*
G02*
X159250000Y-83000000I0J-700000D01*
G01*
X159250000Y-83600000D02*
G75*
G02*
X158550000Y-84300000I-700000J0D01*
G01*
%TO.C,JP2*%
X131500000Y-98450000D02*
X131500000Y-99850000D01*
X132200000Y-100550000D02*
X132800000Y-100550000D01*
X132800000Y-97750000D02*
X132200000Y-97750000D01*
X133500000Y-99850000D02*
X133500000Y-98450000D01*
X131500000Y-98450000D02*
G75*
G02*
X132200000Y-97750000I699999J1D01*
G01*
X132200000Y-100550000D02*
G75*
G02*
X131500000Y-99850000I0J700000D01*
G01*
X132800000Y-97750000D02*
G75*
G02*
X133500000Y-98450000I1J-699999D01*
G01*
X133500000Y-99850000D02*
G75*
G02*
X132800000Y-100550000I-700000J0D01*
G01*
%TO.C,J2*%
X117270000Y-175375000D02*
X117270000Y-133055000D01*
X117270000Y-178295000D02*
X117270000Y-175975000D01*
X117890000Y-178295000D02*
X117890000Y-133055000D01*
X119390000Y-178295000D02*
X119390000Y-133055000D01*
X120623000Y-136815000D02*
X120580000Y-136859000D01*
X120623000Y-141815000D02*
X120580000Y-141859000D01*
X120623000Y-146815000D02*
X120580000Y-146859000D01*
X120623000Y-151815000D02*
X120580000Y-151859000D01*
X120623000Y-156815000D02*
X120580000Y-156859000D01*
X120623000Y-161815000D02*
X120580000Y-161859000D01*
X120623000Y-166815000D02*
X120580000Y-166859000D01*
X120623000Y-171815000D02*
X120580000Y-171859000D01*
X120850000Y-137042000D02*
X120807000Y-137086000D01*
X120850000Y-142042000D02*
X120807000Y-142086000D01*
X120850000Y-147042000D02*
X120807000Y-147086000D01*
X120850000Y-152042000D02*
X120807000Y-152086000D01*
X120850000Y-157042000D02*
X120807000Y-157086000D01*
X120850000Y-162042000D02*
X120807000Y-162086000D01*
X120850000Y-167042000D02*
X120807000Y-167086000D01*
X120850000Y-172042000D02*
X120807000Y-172086000D01*
X123174000Y-134264000D02*
X123130000Y-134308000D01*
X123174000Y-139264000D02*
X123130000Y-139308000D01*
X123174000Y-144264000D02*
X123130000Y-144308000D01*
X123174000Y-149264000D02*
X123130000Y-149308000D01*
X123174000Y-154264000D02*
X123130000Y-154308000D01*
X123174000Y-159264000D02*
X123130000Y-159308000D01*
X123174000Y-164264000D02*
X123130000Y-164308000D01*
X123174000Y-169264000D02*
X123130000Y-169308000D01*
X123401000Y-134491000D02*
X123357000Y-134535000D01*
X123401000Y-139491000D02*
X123357000Y-139535000D01*
X123401000Y-144491000D02*
X123357000Y-144535000D01*
X123401000Y-149491000D02*
X123357000Y-149535000D01*
X123401000Y-154491000D02*
X123357000Y-154535000D01*
X123401000Y-159491000D02*
X123357000Y-159535000D01*
X123401000Y-164491000D02*
X123357000Y-164535000D01*
X123401000Y-169491000D02*
X123357000Y-169535000D01*
X124290000Y-178295000D02*
X124290000Y-133055000D01*
X127310000Y-133055000D02*
X117270000Y-133055000D01*
X127310000Y-178295000D02*
X117270000Y-178295000D01*
X127310000Y-178295000D02*
X127310000Y-133055000D01*
X120209794Y-176214321D02*
G75*
G02*
X120210000Y-175135000I1780219J539321D01*
G01*
X121450679Y-173894794D02*
G75*
G02*
X122530000Y-173895000I539321J-1780219D01*
G01*
X122529321Y-177455206D02*
G75*
G02*
X121450000Y-177455000I-539321J1780196D01*
G01*
X123770206Y-175135679D02*
G75*
G02*
X123770000Y-176215000I-1780206J-539321D01*
G01*
X123850000Y-135675000D02*
G75*
G02*
X120130000Y-135675000I-1860000J0D01*
G01*
X120130000Y-135675000D02*
G75*
G02*
X123850000Y-135675000I1860000J0D01*
G01*
X123850000Y-140675000D02*
G75*
G02*
X120130000Y-140675000I-1860000J0D01*
G01*
X120130000Y-140675000D02*
G75*
G02*
X123850000Y-140675000I1860000J0D01*
G01*
X123850000Y-145675000D02*
G75*
G02*
X120130000Y-145675000I-1860000J0D01*
G01*
X120130000Y-145675000D02*
G75*
G02*
X123850000Y-145675000I1860000J0D01*
G01*
X123850000Y-150675000D02*
G75*
G02*
X120130000Y-150675000I-1860000J0D01*
G01*
X120130000Y-150675000D02*
G75*
G02*
X123850000Y-150675000I1860000J0D01*
G01*
X123850000Y-155675000D02*
G75*
G02*
X120130000Y-155675000I-1860000J0D01*
G01*
X120130000Y-155675000D02*
G75*
G02*
X123850000Y-155675000I1860000J0D01*
G01*
X123850000Y-160675000D02*
G75*
G02*
X120130000Y-160675000I-1860000J0D01*
G01*
X120130000Y-160675000D02*
G75*
G02*
X123850000Y-160675000I1860000J0D01*
G01*
X123850000Y-165675000D02*
G75*
G02*
X120130000Y-165675000I-1860000J0D01*
G01*
X120130000Y-165675000D02*
G75*
G02*
X123850000Y-165675000I1860000J0D01*
G01*
X123850000Y-170675000D02*
G75*
G02*
X120130000Y-170675000I-1860000J0D01*
G01*
X120130000Y-170675000D02*
G75*
G02*
X123850000Y-170675000I1860000J0D01*
G01*
X117270000Y-175675000D02*
X116660000Y-176115000D01*
X116660000Y-175235000D01*
X117270000Y-175675000D01*
G36*
X117270000Y-175675000D02*
G01*
X116660000Y-176115000D01*
X116660000Y-175235000D01*
X117270000Y-175675000D01*
G37*
%TO.C,D2*%
X139180000Y-101930000D02*
X144620000Y-101930000D01*
X139180000Y-111670000D02*
X139180000Y-101930000D01*
X141900000Y-101020000D02*
X141900000Y-101930000D01*
X141900000Y-112580000D02*
X141900000Y-111670000D01*
X144620000Y-101930000D02*
X144620000Y-111670000D01*
X144620000Y-110005000D02*
X139180000Y-110005000D01*
X144620000Y-110125000D02*
X139180000Y-110125000D01*
X144620000Y-110245000D02*
X139180000Y-110245000D01*
X144620000Y-111670000D02*
X139180000Y-111670000D01*
%TD*%
M02*
