M48
; DRILL file {KiCad 9.0.2} date 2026-01-09T01:02:36-0600
; FORMAT={-:-/ absolute / inch / decimal}
; #@! TF.CreationDate,2026-01-09T01:02:36-06:00
; #@! TF.GenerationSoftware,Kicad,Pcbnew,9.0.2
; #@! TF.FileFunction,Plated,1,4,PTH
FMAT,2
INCH
; #@! TA.AperFunction,Plated,PTH,ViaDrill
T1C0.0079
; #@! TA.AperFunction,Plated,PTH,ComponentDrill
T2C0.0079
; #@! TA.AperFunction,Plated,PTH,ViaDrill
T3C0.0118
; #@! TA.AperFunction,Plated,PTH,ViaDrill
T4C0.0197
; #@! TA.AperFunction,Plated,PTH,ComponentDrill
T5C0.0236
; #@! TA.AperFunction,Plated,PTH,ComponentDrill
T6C0.0394
; #@! TA.AperFunction,Plated,PTH,ComponentDrill
T7C0.0512
; #@! TA.AperFunction,Plated,PTH,ComponentDrill
T8C0.0630
%
G90
G05
T1
X4.3976Y-4.0039
X5.0787Y-4.0197
X5.1181Y-4.0709
X5.252Y-3.6614
X5.2992Y-3.4882
X5.3701Y-3.5866
X5.3701Y-3.748
X5.378Y-3.4321
X5.3839Y-3.1535
X5.4026Y-3.1732
X5.4222Y-3.1929
X5.4419Y-3.2112
X5.4803Y-3.1654
X5.5217Y-5.9764
X5.5404Y-6.0118
X5.5591Y-5.9724
X5.8031Y-2.9593
X5.8189Y-2.9199
X5.8268Y-2.8805
X5.8268Y-2.9789
X5.8543Y-2.9409
X5.8583Y-2.8618
X5.8583Y-2.9996
X5.8622Y-2.9022
X5.8858Y-3.0433
X5.9232Y-3.1673
X5.9252Y-3.0394
X5.9252Y-3.3386
X5.9291Y-2.8411
X5.94Y-3.0792
X5.9528Y-2.7427
X5.9571Y-2.7811
X5.9685Y-2.8205
X5.9689Y-3.4265
X5.9712Y-3.0828
X5.9724Y-2.7047
X5.9724Y-3.2559
X5.9846Y-2.7622
X5.9878Y-3.2712
X5.9882Y-3.4409
X5.9995Y-3.043
X6.0118Y-2.7234
X6.0118Y-2.8018
X6.0176Y-3.0611
X6.5049Y-4.2913
T2
X5.7756Y-4.6161
X5.7756Y-4.6437
X5.8071Y-4.6161
X5.8071Y-4.6437
T3
X4.3071Y-2.0709
X4.3071Y-2.1457
X4.311Y-2.2402
X4.4252Y-3.1102
X4.4449Y-2.2638
X4.4941Y-2.3278
X4.498Y-2.065
X4.5215Y-1.9156
X4.5236Y-2.0197
X4.5246Y-1.9656
X4.5591Y-2.2008
X4.563Y-2.3327
X4.6378Y-4.8996
X4.7402Y-2.4961
X4.7756Y-2.815
X4.8386Y-3.5472
X4.8898Y-2.6929
X4.9331Y-2.6299
X4.9488Y-2.2283
X4.9606Y-3.4724
X4.9843Y-3.3465
X5.0276Y-2.5827
X5.0276Y-2.626
X5.0354Y-3.0114
X5.0433Y-2.878
X5.0513Y-2.5587
X5.0591Y-2.9848
X5.0876Y-4.3061
X5.0945Y-3.5472
X5.0984Y-3.7008
X5.1024Y-3.4921
X5.1339Y-3.0748
X5.1339Y-3.2283
X5.1378Y-2.437
X5.1437Y-3.9291
X5.1772Y-2.9331
X5.1772Y-2.9803
X5.1789Y-2.6299
X5.185Y-2.7402
X5.187Y-2.5886
X5.1969Y-2.8189
X5.2047Y-2.5551
X5.2165Y-2.1102
X5.2165Y-2.9094
X5.2165Y-3.4961
X5.2165Y-3.8228
X5.2244Y-3.0354
X5.2362Y-3.2205
X5.2559Y-2.8799
X5.2756Y-2.3976
X5.2992Y-3.4173
X5.2992Y-3.5709
X5.2992Y-3.7244
X5.3031Y-2.5551
X5.3344Y-2.293
X5.3346Y-2.248
X5.3435Y-4.3081
X5.3435Y-4.44
X5.3445Y-4.374
X5.3701Y-2.5551
X5.372Y-2.374
X5.3748Y-2.2059
X5.3799Y-4.1634
X5.3809Y-4.373
X5.4055Y-3.3583
X5.4055Y-3.5039
X5.4055Y-3.6614
X5.4203Y-4.3337
X5.4252Y-2.4213
X5.4272Y-2.0709
X5.4301Y-3.4528
X5.4301Y-3.5984
X5.4518Y-2.2805
X5.4596Y-4.2943
X5.4606Y-3.311
X5.5217Y-2.063
X5.5236Y-2.4212
X5.5246Y-3.2477
X5.5443Y-3.1693
X5.5463Y-2.2884
X5.5512Y-1.5394
X5.5512Y-1.5827
X5.5512Y-1.626
X5.5815Y-2.2079
X5.5827Y-2.4134
X5.5984Y-1.8898
X5.6125Y-2.4314
X5.6181Y-2.5571
X5.6312Y-2.3646
X5.6378Y-3.0472
X5.6614Y-2.5866
X5.6811Y-3.1039
X5.6811Y-2.1454
X5.7165Y-1.6732
X5.7402Y-4.5846
X5.7413Y-2.1417
X5.752Y-3.2835
X5.7559Y-3.2402
X5.7559Y-3.4055
X5.7562Y-2.3701
X5.7638Y-3.185
X5.7677Y-3.3701
X5.815Y-2.3504
X5.8425Y-4.5846
X5.8622Y-2.5157
X5.878Y-2.4528
X5.9016Y-2.5551
X5.9173Y-1.5394
X5.9213Y-3.4685
X5.9429Y-2.4331
X5.9528Y-4.1772
X5.9685Y-3.3307
X5.9744Y-3.1634
X5.9783Y-2.5807
X5.9941Y-2.0728
X5.9953Y-3.3654
X6.0118Y-3.1535
X6.0157Y-2.3563
X6.0166Y-3.3268
X6.0512Y-3.4685
X6.126Y-3.1811
X6.1378Y-3.2756
X6.1831Y-1.4803
X6.2047Y-1.7598
X6.2165Y-2.5472
X6.2362Y-2.8228
X6.2362Y-3.2126
X6.248Y-2.1063
X6.3317Y-1.4833
T4
X4.3307Y-1.5748
X4.3307Y-4.3307
X4.3307Y-4.5276
X4.3307Y-4.7244
X4.3307Y-4.9213
X4.3307Y-5.1181
X4.3307Y-5.315
X4.3307Y-5.5118
X4.3307Y-5.7087
X4.3307Y-5.9055
X4.3307Y-6.1024
X4.3307Y-6.2992
X4.3307Y-6.6929
X4.4291Y-3.4449
X4.4291Y-3.6417
X4.4429Y-2.9154
X4.5276Y-1.6732
X4.5276Y-4.3307
X4.5276Y-4.7244
X4.5276Y-4.9213
X4.5276Y-5.1181
X4.5276Y-5.315
X4.5276Y-5.5118
X4.5276Y-5.7087
X4.5276Y-5.9055
X4.5276Y-6.1024
X4.5276Y-6.2992
X4.5276Y-6.6929
X4.7244Y-1.378
X4.7244Y-1.6732
X4.7244Y-1.9685
X4.7244Y-3.7402
X4.9213Y-1.378
X4.9213Y-1.6732
X4.9213Y-1.9685
X5.1181Y-5.1181
X5.2165Y-1.7717
X5.315Y-5.1181
X5.315Y-6.6929
X5.315Y-6.8898
X5.4134Y-1.5748
X5.4134Y-1.7717
X5.5118Y-6.6929
X5.5118Y-6.8898
X5.5492Y-3.9409
X5.7087Y-3.5433
X5.7087Y-3.7402
X5.7992Y-1.9941
X5.8071Y-4.3307
X5.9055Y-3.5433
X5.9055Y-4.0354
X6.1024Y-3.7402
X6.1024Y-5.1181
X6.2992Y-4.9213
X6.2992Y-5.1181
X6.2992Y-5.315
X6.2992Y-5.5118
X6.2992Y-5.7087
X6.2992Y-5.9055
X6.2992Y-6.1024
X6.2992Y-6.2992
X6.2992Y-6.6929
X6.4724Y-1.3386
X6.4961Y-1.5748
X6.4961Y-4.7244
X6.4961Y-4.9213
X6.4961Y-5.1181
X6.4961Y-5.315
X6.4961Y-5.5118
X6.4961Y-5.7087
X6.4961Y-5.9055
X6.4961Y-6.1024
X6.4961Y-6.2992
X6.4961Y-6.6929
T6
X4.624Y-2.7598
X4.624Y-2.8598
X4.624Y-2.9598
X6.3319Y-2.0059
X6.3319Y-2.1059
X6.3319Y-2.2059
X6.3319Y-2.3059
X6.4319Y-2.0059
X6.4319Y-2.1059
X6.4319Y-2.2059
X6.4319Y-2.3059
T7
X4.8028Y-5.3415
X4.8028Y-5.5384
X4.8028Y-5.7352
X4.8028Y-5.9321
X4.8028Y-6.1289
X4.8028Y-6.3258
X4.8028Y-6.5226
X4.8028Y-6.7195
X4.8028Y-6.9163
X6.0398Y-5.3415
X6.0398Y-5.5384
X6.0398Y-5.7352
X6.0398Y-5.9321
X6.0398Y-6.1289
X6.0398Y-6.3258
X6.0398Y-6.5226
X6.0398Y-6.7195
X6.0398Y-6.9163
T8
X5.1291Y-5.7195
X5.1291Y-6.0148
X5.1299Y-5.4358
X5.5866Y-4.5047
X5.5866Y-5.1047
X5.7291Y-5.7195
X5.7291Y-6.0148
X5.7299Y-5.4358
T5
G00X6.2866Y-2.5037
M15
G01X6.3299Y-2.5037
M16
G05
G00X6.2866Y-2.8439
M15
G01X6.3299Y-2.8439
M16
G05
G00X6.461Y-2.5037
M15
G01X6.4846Y-2.5037
M16
G05
G00X6.461Y-2.8439
M15
G01X6.4846Y-2.8439
M16
G05
M30
